<svg xmlns="http://www.w3.org/2000/svg" viewBox="0 0 34 34">
	<circle fill="none" cx="17px" cy="17px" r="17px" />
	<path fill="#333333" clipRule="evenodd" fillRule="evenodd" d="M19.2 13.2c-1.2-1.2-2.9-2.1-5-2.1v-2.6s-4 3.3-5.2 4.6c-.6.7-1.5 2.1-1.5 3.4 0 2.9 2.8 5.2 6.2 5.4 1.2 1.2 3 2.1 5 2.1v2.6s4-3.3 5.2-4.6c.6-.7 1.5-2.1 1.5-3.4 0-2.8-2.7-5.2-6.2-5.4zm-9.3 3.3c0-.8.6-1.6 1-2 .6-.7 2.6-2.7 2.6-2.7v1.5c.9 0 1.9.1 2.7.4-2.3.9-3.9 2.8-3.9 4.9 0 .3 0 .5.1.8-1.5-.6-2.5-1.7-2.5-2.9zm12.2 4.2c-.6.7-2.6 2.7-2.6 2.7v-1.5c-.9 0-1.9-.1-2.7-.3-1-.3-1.9-.9-2.2-1.9-.1-.3-.2-.6-.2-.9-.1-1.8 1.9-3.2 4.3-3.2.3 0 .7 0 1 .1 0 0 .6.1.9.2 1.4.5 2.4 1.6 2.4 2.8.1.8-.5 1.6-.9 2z" />
</svg>
