<svg xmlns="http://www.w3.org/2000/svg" viewBox="0 0 34 34">
	<circle fill="none" cx="17px" cy="17px" r="17px" />
	<path fill="#333333" clipRule="evenodd" fillRule="evenodd" d="M24,14h-3v-3c0-1.105-0.895-2-2-2h-8c-1.105,0-2,0.895-2,2v8c0,1.105,0.895,2,2,2h3v3 c0,1.105,0.895,2,2,2h8c1.105,0,2-0.895,2-2v-8C26,14.895,25.105,14,24,14z M24,23c0,0.552-0.448,1-1,1h-6c-0.552,0-1-0.448-1-1v-4 h-4c-0.552,0-1-0.448-1-1v-6c0-0.552,0.448-1,1-1h6c0.552,0,1,0.448,1,1v4h4c0.552,0,1,0.448,1,1V23z" />
	<!--
	<path fill="#333333" clipRule="evenodd" fillRule="evenodd" d="M23.5 13.5h-3v-3c0-1.1-.9-2-2-2h-8c-1.1 0-2 .9-2 2v8c0 1.1.9 2 2 2h3v3c0 1.1.9 2 2 2h8c1.1 0 2-.9 2-2v-8c0-1.1-.9-2-2-2zm0 9c0 .6-.4 1-1 1h-6c-.6 0-1-.4-1-1v-4h-4c-.6 0-1-.4-1-1v-6c0-.6.4-1 1-1h6c.6 0 1 .4 1 1v4h4c.6 0 1 .4 1 1v6z"/>
	-->
</svg>
