<svg xmlns="http://www.w3.org/2000/svg" viewBox="0 0 34 34">
	<circle fill="none" cx="17px" cy="17px" r="17px" />
	<path fill="#333333" clipRule="evenodd" fillRule="evenodd" d="M23.316 23c-2.4-2.6-4.9-1.2-6.7-.1-2 1.2-3.2 1.7-4.6.1-.3-.3-.8-.4-1.2-.1-.4.3-.4.8-.1 1.1 1 1.1 2.1 1.5 3.1 1.5 1.4 0 2.7-.7 3.7-1.3 2-1.1 3.1-1.7 4.5-.2.3.3.8.4 1.2.1.3-.3.4-.8.1-1.1zm-4.2-5.4l4.3-6-3.4-3.1-6.5 3.9c-.7.4-1.1 1-1.3 1.7l-1.6 6.2 6.7-1.5c.7-.1 1.3-.6 1.8-1.2zm-2.5-1.1c-.5.5-1.4.5-1.9 0s-.5-1.3 0-1.8 1.4-.5 1.9 0 .5 1.3 0 1.8z" />
</svg>
