<svg xmlns="http://www.w3.org/2000/svg" viewBox="0 0 34 34">
	<circle fill="none" cx="17px" cy="17px" r="17px" />
	<path fill="#333333" d="M22.998,20.005c-0.552,0-0.999,0.447-0.999,1v1c0,0.552-0.448,1-1.001,1h-8.999 c-0.553,0-1.002-0.448-1.002-1v-8.999c0-0.553,0.449-1,1.002-1h5.998c0.553,0,1.001-0.448,1.001-1c0-0.553-0.448-1-1.001-1h-5.998 c-1.657,0-3.002,1.343-3.002,3v8.999c0,1.657,1.344,3,3.002,3h8.999c1.656,0,3-1.343,3-3v-1 C23.999,20.452,23.551,20.005,22.998,20.005z M25.708,13.219l-2.903-2.921c-0.402-0.403-1.052-0.403-1.453,0 c-0.399,0.403-0.399,1.057,0,1.46l1.238,1.246H22c-3.866,0-7.001,3.133-7.001,7c0,0.551,0.447,1,1.001,1c0.552,0,1-0.448,1-1 c0-2.762,2.237-5.001,5.001-5.001h0.52l-1.196,1.203c-0.403,0.406-0.403,1.064,0,1.469c0.403,0.406,1.058,0.406,1.459,0l2.922-2.938 c0.207-0.211,0.304-0.487,0.297-0.763C26.008,13.702,25.912,13.427,25.708,13.219z"/>
</svg>
