<svg xmlns="http://www.w3.org/2000/svg" viewBox="0 0 34 34">
	<circle fill="none" cx="17px" cy="17px" r="17px" />
	<path fill="#333333" d="M16.850001 12.899997c-2.4 0-4.6.9-6.3 2.6-.2.2-.3.4-.3.7 0 .3.1.5.3.7.4.4 1 .4 1.4 0 2.7-2.7 7.1-2.7 9.8 0 .2.2.5.3.7.3.3 0 .5-.1.7-.3.2-.2.3-.4.3-.7 0-.3-.1-.5-.3-.7-1.6-1.7-3.9-2.6-6.3-2.6zm9.7-.7c-2.6-2.5000003-6-3.9000003-9.6-3.9000003-3.7 0-7.1 1.4-9.6 3.9000003-.2.2-.3.4-.3.7 0 .3.1.5.3.7.4.4 1 .4 1.4 0 4.5-4.5000003 11.9-4.5000003 16.5 0 .2.2.5.3.7.3.3 0 .5-.1.7-.3.2-.2.3-.4.3-.7 0-.3-.2-.5-.4-.7zm-9.7 5.9c-1 0-2 .4-2.7 1.1-.7.7-1.1 1.7-1.1 2.7 0 1 .4 2 1.1 2.7.7.7 1.7 1.1 2.7 1.1 1 0 2-.4 2.7-1.1.7-.7 1.1-1.7 1.1-2.7 0-1-.4-2-1.1-2.7-.7-.7-1.6-1.1-2.7-1.1zm1.9 3.7c0 .5-.2.9-.5 1.3-.3.3-.8.5-1.3.5s-1-.2-1.3-.5c-.3-.3-.5-.8-.5-1.3s.2-.9.5-1.3c.3-.3.8-.5 1.3-.5s1 .2 1.3.5c.3.4.5.9.5 1.3z"/>
</svg>
