<svg xmlns="http://www.w3.org/2000/svg" viewBox="0 0 34 34">
	<circle fill="none" cx="17px" cy="17px" r="17px" />
	<path fill="#333333" d="M24,15l-6-6c-0.1-0.2-0.4-0.3-0.7-0.3h-4l0,0c-0.8,0-1.6,0.3-2.1,0.9c-0.6,0.5-0.9,1.3-0.9,2.1 c0,0.6,0.4,1,1,1l0,0c0.6,0,1-0.4,1-1c0-0.6,0.4-1,1-1l0,0h3v5c0,0.3,0.1,0.5,0.3,0.7c0.2,0.2,0.4,0.3,0.7,0.3h5v4.8 c0,1.2-1,2.2-2.2,2.2h-6.8c-0.5,0-1-0.4-1-1c0-0.1-0.4,0-1,0c-0.6,0-1,0-1,0c0,1.6,1.3,3,3,3h6.9c2.3,0,4.1-1.9,4.1-4.2v-5.8 C24.3,15.4,24.2,15.2,24,15z M18.3,14.7v-2.6l2.6,2.6H18.3z M11.3,21.7L11.3,21.7c0.6,0,1-0.5,1-1v-2h2c0.6,0,1-0.5,1-1 c0-0.6-0.4-1-1-1l0,0h-2v-2c0-0.6-0.4-1-1-1l0,0c-0.6,0-1,0.5-1,1v2h-2c-0.6,0-1,0.5-1,1c0,0.6,0.4,1,1,1l0,0h2v2 C10.3,21.2,10.7,21.7,11.3,21.7z "/>
</svg>
