<svg xmlns="http://www.w3.org/2000/svg" viewBox="0 0 34 34">
	<circle fill="none" cx="17px" cy="17px" r="17px" />
	<path fill="#333333" d="M22.7953491,11.2041626c-1.3552246-1.3552246-3.1314697-2.0328369-4.9076538-2.0328369 c-1.7762451,0-3.5524902,0.6776123-4.9077148,2.0328369c-2.4719849,2.4719849-2.6817627,6.3408813-0.6447144,9.0593262 l-3.0456543,3.0460815c-0.3862305,0.3867188-0.3862305,1.0136719,0.0004883,1.4003906 C9.4834595,24.9033203,9.7363892,25,9.9898071,25s0.5068359-0.0966797,0.7001953-0.2900391l3.0455933-3.0460205 c1.2282104,0.9204712,2.6882324,1.3884277,4.1520996,1.3884277c1.7761841,0,3.5524292-0.6776123,4.9076538-2.0328369 C25.5057983,18.309082,25.5057983,13.9146118,22.7953491,11.2041626z M21.3955078,19.6196899 c-0.9370117,0.9369507-2.1827393,1.4529419-3.5078125,1.4529419s-2.5708618-0.5159912-3.5078125-1.4529419 c-1.9342041-1.9342041-1.9342041-5.0814209,0-7.015625c0.9369507-0.9370117,2.1827393-1.4530029,3.5078125-1.4530029 s2.5708008,0.5159912,3.5078125,1.4530029C23.3297119,14.538269,23.3297119,17.6854858,21.3955078,19.6196899z" />
</svg>
