<svg xmlns="http://www.w3.org/2000/svg" viewBox="0 0 34 34">
	<circle fill="none" cx="17px" cy="17px" r="17px" />
	<path fill="#333333" clip-rule="evenodd" fill-rule="evenodd" d="M25.208 16.34c-.2-.2-.5-.3-.7-.4-.1 0-.1-.1-.1-.1-.2-.1-.4-.3-.2-.6.1-.1.5-.8.7-1.1.2-.6.3-1.3-.3-2.1 0 0-.9-1.1-1-1.2-.7-.8-1.3-.8-2-.7-.3.1-.6.1-.8.3-.1 0-.2.1-.4.1h-.3c-.1 0-.1-.1-.2-.3 0-.1-.1-.3-.1-.4 0-.3-.2-.6-.3-.8-.3-.6-.8-1-1.8-1.1h-1.5c-1 .1-1.5.5-1.8 1.1-.1.3-.4 1.1-.4 1.2 0 .1-.1.2-.1.2-.1.1-.2.1-.4 0-.1 0-.9-.4-1.2-.4-.7-.1-1.3-.1-2 .7 0 0-.9 1.1-1 1.2-.6.8-.5 1.5-.3 2.1.1.3.6 1 .7 1.1.2.3 0 .5-.2.6 0 0-.6.3-.8.5-.5.4-.9.9-.8 2 0 .1.2 1.4.3 1.5.2 1 .7 1.4 1.4 1.6.3.1 1.3.2 1.3.2h.3c.2.1.3.2.3.5 0 .1-.1 1-.1 1.3 0 .7.2 1.3 1.1 1.8 0 0 1.3.6 1.4.7.9.4 1.5.2 2.1-.2.2-.2.5-.4.6-.6l.3-.3c.3-.3.5-.1.6 0l.2.2c.2.3.4.5.6.6.5.4 1.1.6 2.1.2.1 0 1.3-.6 1.4-.7.9-.5 1.1-1.1 1.1-1.8 0-.3 0-.6-.1-.9 0-.1 0-.3-.1-.4 0-.1 0-.2.1-.3.1-.1.1-.1.3-.1.1 0 .3 0 .4-.1.3 0 .6-.1.9-.2.6-.2 1.1-.6 1.4-1.6 0-.1.2-1.4.3-1.5 0-.9-.4-1.4-.9-1.8zm-1.8 3.2c-.8-.2-1.7.1-2.3.7-.7.8-.9 1.9-.5 2.9l-1.3.7c-.5-.8-1.3-1.3-2.2-1.3-.9 0-1.7.5-2.2 1.3l-1.1-.6c.4-1 .3-2.2-.5-3-.7-.7-1.7-.9-2.6-.6l-.4-1.6c1.1-.4 1.8-1.3 1.8-2.5 0-.8-.3-1.5-.9-2l.9-1.1c1 .7 2.6.6 3.5-.3.5-.5.6-1.2.6-1.8h1.5c0 .7.1 1.3.6 1.8 1 1 2.3 1 3.4 0l1 1.3c-.6.5-1 1.2-1 2 0 1.2.9 2.2 2 2.6l-.3 1.5zm-6.3-4.3c-1 0-1.8.8-1.8 1.8s.8 1.8 1.8 1.8 1.8-.8 1.8-1.8-.8-1.8-1.8-1.8z"/>
</svg>
