<svg xmlns="http://www.w3.org/2000/svg" viewBox="0 0 34 34">
	<path fill="#7A7A7A" d="M24.6,9.3l-8-0.8c-0.3,0-1.1,0.1-1.6,0.6c-0.4,0.4-0.5,1.1-0.5,1.4v13c0,0.3-0.1,1,0.4,1.5 c0.3,0.4,1.3,0.5,1.6,0.5l8.1-0.8c0.5-0.1,0.9-0.5,0.9-1V10.3C25.5,9.8,25.1,9.4,24.6,9.3z M23.5,22.8l-7,0.6V10.6l7,0.6V22.8z M12.5,9.6c-0.6,0-1,0.4-1,1v12.8c0,0.6,0.4,1,1,1s1-0.4,1-1V10.6C13.5,10.1,13.1,9.6,12.5,9.6z M9.5,10.9c-0.6,0-1,0.4-1,0.9 v10.4c0,0.5,0.4,0.9,1,0.9s1-0.4,1-0.9V11.8C10.5,11.3,10.1,10.9,9.5,10.9z" />
</svg>
