<svg xmlns="http://www.w3.org/2000/svg" viewBox="0 0 34 34">
	<path fill="#7A7A7A" d="M23.5,17.5h-4.3c-1,0-1.8,0.8-1.8,1.9v4.3c0,1,0.8,1.9,1.9,1.9h4.3c1,0,1.9-0.8,1.9-1.9v-4.3 C25.5,18.3,24.7,17.5,23.5,17.5z M23.5,23.5h-4v-4h4V23.5z M23.5,8.4h-4.3c-1,0-1.8,0.8-1.8,1.9v4.3c0,1,0.8,1.8,1.8,1.8h4.3 c1,0,1.9-0.8,1.9-1.9v-4.2C25.5,9.3,24.7,8.4,23.5,8.4z M23.5,14.4h-4v-4h4V14.4z M14.5,17.5h-4.2c-1.1,0-1.9,0.8-1.9,1.9v4.3 c0,1,0.8,1.9,1.9,1.9h4.3c1,0,1.9-0.8,1.9-1.9v-4.3C16.5,18.3,15.5,17.5,14.5,17.5z M14.4,23.5h-4v-4h4V23.5z M14.5,8.4h-4.2 c-1.1,0-1.9,0.8-1.9,1.9v4.3c0,1,0.8,1.8,1.9,1.8h4.3c0.9,0,1.8-0.8,1.8-1.8v-4.3C16.5,9.3,15.5,8.4,14.5,8.4z M14.4,14.4h-4v-4h4 V14.4z" />
</svg>
