<svg xmlns="http://www.w3.org/2000/svg" viewBox="0 0 34 34">
	<circle fill="none" cx="17px" cy="17px" r="17px" />
	<path fill="#333333" clipRule="evenodd" fillRule="evenodd" d="M24.83 13.113l-4.4-4.4c-1.2-1.2-3.1-1.2-4.3 0l-6.5 6.5.7.7-1.5 1.5c-1.2 1.2-1.2 3.1 0 4.3l2.9 2.9c1.2 1.2 3.1 1.2 4.3 0l1.4-1.4.7.7 6.5-6.5c1.4-1.2 1.4-3.1.2-4.3zm-10.2 10.1c-.4.4-1 .4-1.4 0l-2.9-2.9c-.4-.4-.4-1 0-1.4l1.4-1.4 4.3 4.3-1.4 1.4zm8-6.5l-4.3 4.3-2.9-2.9-2.9-2.9 4.3-4.3c.8-.8 2.1-.8 2.9 0l2.9 2.9c.8.8.8 2.1 0 2.9z"/>
</svg>
