<svg xmlns="http://www.w3.org/2000/svg" viewBox="0 0 34 34">
	<circle fill="none" cx="17px" cy="17px" r="17px" />
	<path fill="#333333" clipRule="evenodd" fillRule="evenodd" d="M8 15c0-.6-.4-1-1-1s-1 .5-1 1v3c0 .6.4 1 1 1s1-.5 1-1v-3zm17 0v3c0 .6.4 1 1 1s1-.5 1-1v-3c0-.6-.4-1-1-1s-1 .5-1 1zm-7 9.9h-3c-.5 0-1 .4-1 1s.4 1 1 1h3c.5 0 1-.4 1-1 0-.5-.4-1-1-1zM14.9 8h3c.6 0 1-.4 1-1s-.5-1-1-1h-3c-.6 0-1 .4-1 1s.5 1 1 1zM9.5 21.4c-.4-.4-1-.4-1.4 0-.4.4-.4 1 0 1.4l2.1 2.1c.4.4 1 .4 1.4 0 .4-.4.4-1 0-1.4l-2.1-2.1zm14.2-9.8c.4.4 1 .4 1.4 0 .4-.4.4-1 0-1.4L23 8.1c-.4-.4-1-.4-1.4 0-.4.4-.4 1 0 1.4l2.1 2.1zM10.1 8l-2.3 2.3c-.4.4-.4 1.1 0 1.5.4.4 1.1.4 1.6 0l2.3-2.3c.4-.4.4-1.1 0-1.5-.5-.5-1.2-.4-1.6 0zM20 20l2.9 8 1.6-3.5 3.5-1.6-8-2.9z" />
</svg>
