<svg xmlns="http://www.w3.org/2000/svg" viewBox="0 0 34 34">
	<circle fill="none" cx="17px" cy="17px" r="17px" />
	<path fill="#333333" clipRule="evenodd" fillRule="evenodd" d="M25.1 15.85l-6.1 3.5c-1.1.6-2.9.6-4 0l-6.1-3.5c-1.1-.6-1.1-1.7 0-2.3l6.1-3.5c1.1-.6 2.9-.6 4 0l6.1 3.5c1.1.6 1.1 1.7 0 2.3zm-2.2-1.4l-5.4-2.9c-.3-.2-.8-.2-1.1 0l-5.3 2.9c-.3.2-.3.4 0 .6l5.3 2.9c.3.2.8.2 1.1 0l5.3-2.9c.4-.2.4-.5.1-.6zm-14 3.8l.7-.4 1.9 1.1-.3.2c-.3.2-.3.4 0 .6l5.3 2.8c.3.2.8.2 1.1 0l5.3-2.9c.3-.2.3-.4 0-.6l-.3-.2 1.8-1.1.7.4c1.1.6 1.1 1.7 0 2.3l-6.1 3.5c-1.1.6-2.9.6-4 0l-6.1-3.5c-1.1-.5-1.1-1.6 0-2.2z" />
</svg>
