<svg xmlns="http://www.w3.org/2000/svg" viewBox="0 0 34 34">
	<circle fill="none" cx="17px" cy="17px" r="17px" />
	<path fill="#333333" d="M17.6,12h-6.2C9.5,12,8,13.5,8,15.4v9.2c0,1.9,1.5,3.4,3.4,3.4h6.2c1.9,0,3.4-1.5,3.4-3.4v-9.2 C21,13.5,19.5,12,17.6,12z M19,24.6c0,0.8-0.6,1.4-1.4,1.4h-6.2c-0.8,0-1.4-0.6-1.4-1.4v-9.2c0-0.8,0.6-1.4,1.4-1.4h6.2 c0.8,0,1.4,0.6,1.4,1.4V24.6z M22.695,7H16.2c-1.9,0-3.4,1.5-3.4,3.4c0,0.6,0.4,1,1,1s1-0.4,1-1c0-0.8,0.6-1.4,1.4-1.4l0,0v0.6 c0,0.6,0.4,1,1,1h4.3c0.6,0,1-0.4,1-1V9l0,0c0.8,0,1.495,0.6,1.495,1.4v8.8c0,0.8-0.6,1.4-1.4,1.4c-0.6,0-1,0.4-1,1s0.4,1,1,1 c1.9,0,3.4-1.5,3.4-3.4v-8.8C26.095,8.5,24.595,7,22.695,7z M16.177,18.006l-2.4,2.4l-1.2-1.2c-0.3-0.3-0.8-0.3-1.1,0 s-0.3,0.8,0,1.1l1.8,1.8c0.2,0.2,0.4,0.2,0.6,0.2s0.419-0.069,0.6-0.2c0.86-0.62,3-3,3-3c0.3-0.3,0.295-0.795,0-1.1 C17.111,17.626,16.477,17.706,16.177,18.006z" />
</svg>
