<svg xmlns="http://www.w3.org/2000/svg" viewBox="0 0 34 34">
	<circle fill="none" cx="17px" cy="17px" r="17px" />
	<path fill="#333333" d="M9.43 21.053c-1.173 1.17-1.173 3.07 0 4.243 1.17 1.172 3.07 1.172 4.242 0l.707-.707-4.244-4.244-.707.707zm14.847-10.607c-1.562-1.562-4.095-1.562-5.657 0l-8.485 8.485 5.656 5.658 8.486-8.485c1.564-1.562 1.564-4.095 0-5.657zm-1.414 4.243l-7.07 7.07-2.83-2.83 7.072-7.07c.78-.78 2.047-.78 2.83 0 .78.782.78 2.048-.002 2.83zm-9.545-1.062c.195.195.51.195.707 0l4.243-4.243c.195-.195.195-.512 0-.707l-.707-.707c-.195-.194-.51-.194-.707 0l-4.243 4.244c-.195.195-.195.512 0 .707l.708.708z" />
</svg>
