<svg xmlns="http://www.w3.org/2000/svg" viewBox="0 0 34 34">
	<circle fill="none" cx="17px" cy="17px" r="17px" />
	<path fill="#333333" clipRule="evenodd" fillRule="evenodd" d="M13.7 13.3c-.4-.4-1.1-.4-1.5 0l-2.9 2.9c-.1.1-.2.3-.2.4-.2.4-.1.8.2 1.2l2.9 2.9c.4.4 1.1.4 1.5 0 .4-.4.4-1.1 0-1.5L11.5 17l2.2-2.2c.4-.4.4-1.1 0-1.5zm11.2 3.3c0-.1-.1-.3-.2-.4l-2.9-2.9c-.4-.4-1.1-.4-1.5 0-.4.4-.4 1.1 0 1.5l2.2 2.2-2.2 2.2c-.4.4-.4 1.1 0 1.5.4.4 1.1.4 1.5 0l2.9-2.9c.3-.3.4-.8.2-1.2zM17 8c-.6 0-1 .4-1 1v16c0 .6.4 1 1 1s1-.4 1-1V9c0-.5-.5-1-1-1z" />
</svg>
