<svg xmlns="http://www.w3.org/2000/svg" viewBox="0 0 190.9728851 161.9076996" width="190" height="160">
	<path fill="#939393" d="M179.2660828,0L11.7068138,0.0350952c-6.4552002,0-11.7067871,5.2514648-11.7067871,11.706665v101.6353149 c0,6.4552002,5.3769531,11.5369873,11.8321533,11.5369873l64.1538696,0.0640259l0.0714111,26.0962524H60.6490746 c-2.4464111,0-4.4371948,2.3996582-4.4371948,4.8461914v1.5499268c0,2.4465332,1.9907837,4.4371948,4.4371948,4.4371948 h69.6739502c2.4465332,0,4.4371948-1.9906616,4.4371948-4.4371948v-1.5499268 c0-2.4465332-1.9906616-4.8461914-4.4371948-4.8461914h-15.5774612l0.0705566-26.0962524h64.5205765 c6.4553223,0,11.6361694-5.1808472,11.6361694-11.6360474V11.7067261C190.9728699,5.2515259,185.721405,0,179.2660828,0z M130.3230286,153.9076538c0.7811279,0,1.4161377,0.6351318,1.4161377,1.4161987v2.2510376 c0,0.7811279-0.6350098,1.4161377-1.4161377,1.4161377H60.6490746c-0.7810059,0-1.4161377-0.6350098-1.4161377-1.4161377 v-2.2510376c0-0.7810669,0.6351318-1.4161987,1.4161377-1.4161987H130.3230286z M78.9860458,151.0743408v-26.0909424h33.083313 v26.0909424H78.9860458z M187.9860535,113.342041c0,4.7889404-3.1393433,8.6855469-7.9285889,8.6855469H76.2265244 l-64.5197144,0.0350952c-4.7891235,0-8.68573-3.8966064-8.68573-8.6856079V11.7417603 c0-4.7890015,3.8966064-8.6856079,8.68573-8.6856079l167.5935059-0.0350342c4.7892456,0,8.68573,3.8966064,8.68573,8.6856079 V113.342041z M178.0693665,9.9910278H12.8897972c-1.0428467,0-1.8881226,0.845459-1.8881226,1.8881836v93.1546021 c0,1.0429077,0.8452759,1.8881836,1.8881226,1.8881836h165.1795654c1.0428467,0,1.8882446-0.8452759,1.8882446-1.8881836 V11.8792114C179.9576111,10.8364868,179.1122131,9.9910278,178.0693665,9.9910278z M176.992157,103.9945679H13.9790306V12.9794922 H176.992157V103.9945679z M80.823143,73.2476196c0.2949829,0.295105,0.6815186,0.4425659,1.0679932,0.4425659 c0.3865356,0,0.7730103-0.1474609,1.0679932-0.4425659l12.5269165-12.5269165l12.5269775,12.5269165 c0.2950439,0.295105,0.6813965,0.4425659,1.0679321,0.4425659c0.3865967,0,0.7730103-0.1474609,1.0679932-0.4425659 c0.5900879-0.5900879,0.5900879-1.5458984,0-2.1359253L97.6221542,58.5847168l12.5267944-12.5269165 c0.5900879-0.5900879,0.5900879-1.5458984,0-2.1359863c-0.5900269-0.5900879-1.5458984-0.5900879-2.1359253,0 L95.4860458,56.4487305L82.9591293,43.921814c-0.5899658-0.5900879-1.5458984-0.5900879-2.1359863,0 s-0.5900879,1.5458984,0,2.1359863l12.5269165,12.5269165L80.823143,71.1116943 C80.2330551,71.7017212,80.2330551,72.6575317,80.823143,73.2476196z M95.4860458,86.9074097 c15.8253784,0,28.7003784-12.875,28.7003784-28.7003174c0-15.8252563-12.875-28.7003784-28.7003784-28.7003784 c-15.8253174,0-28.7003784,12.8751221-28.7003784,28.7003784C66.7856674,74.0324097,79.6607285,86.9074097,95.4860458,86.9074097z M95.4860458,32.527832c14.1599121,0,25.6793213,11.5194092,25.6793213,25.6792603 c0,14.1599121-11.5194092,25.6793213-25.6793213,25.6793213S69.8067245,72.3670044,69.8067245,58.2070923 C69.8067245,44.0472412,81.3261337,32.527832,95.4860458,32.527832z" />
</svg>
