<svg xmlns="http://www.w3.org/2000/svg" class="logo">
	<g fill="#00a7db">
		<path preserveAspectRatio="xMidYMin slice" d="M49.82 172.58C22.5 157.6.14 145 .14 144.6c0-.4 11.35-6.9 25.22-14.47 13.86-7.56 25.43-14.1 25.7-14.52.26-.42-.04-4.4-.7-8.8-1.4-9.58-.08-18.95 3.87-27.45C57.83 71.6 99.13.15 100 .15c1.3 0 45.7 78.3 47.62 83.93 3 8.84 3.3 18.67.87 27.9-3.97 15.03-13.5 25.82-26.26 32.58-14.63 6.95-31.28 4.73-42.78.94-4.34-2.06-7.62-4.14-7.35-4.56.28-.43 2.56-1.88 5.1-3.24 4.5-2.43 4.65-2.44 9.4-.8 10.42 3.6 20.48 3.1 30.38-1.52 16.72-7.8 26.1-28.6 20.9-46.36-1.54-5.27-36.48-67.73-37.92-67.78-1.25-.05-36.24 62.36-37.7 67.26-2.8 9.42-1.86 19.55 2.83 30.16.53 1.25-3.87 4.06-21.04 13.42-11.95 6.52-21.73 12.15-21.73 12.5 0 .37 17.48 10.25 38.84 21.96l38.83 21.3 38.84-21.32c21.35-11.7 38.83-21.57 38.83-21.9 0-.33-3.18-2.33-7.08-4.46l-7.08-3.86 4.8-2.8c2.65-1.56 5.35-2.84 6-2.85 1.66-.02 25.54 13.03 25.54 13.95 0 .64-99.05 55.36-100 55.26-.2-.02-22.72-12.3-50.04-27.28z" />
	</g>
</svg>
