<svg xmlns="http://www.w3.org/2000/svg" width="292" height="292">
	<path fill="#999999" d="M146 0C102.2 0 62.8 19.3 36.1 50H36v.1C13.6 75.7 0 109.3 0 146c0 32.1 10.4 61.8 28 85.9l.1.2c4.8 6.5 10.1 12.7 15.9 18.3l.7.7c26.3 25.3 62 41 101.3 41 80.5 0 146-65.5 146-146S226.5 0 146 0zM55.5 34h125.7c3.5 0 6.7 2.5 6.7 5.1v170.2c0 2.5-3.1 4.8-6.7 4.8H19.1c-2.8-5.2-5.2-10.5-7.4-16H176V50H38.7c5.2-5.8 10.8-11.1 16.8-16zM37 52h137v144H11c-5.8-15.6-9-32.5-9-50 0-35.9 13.2-68.8 35-94zm-6.4 180H208v17H45.5c-5.4-5.3-10.4-10.9-14.9-17zM146 290c-38 0-72.6-14.8-98.4-39H210v-21H29.1c-3.2-4.5-6.2-9.2-8.9-14h161.1c4.7 0 8.7-3.1 8.7-6.8V39.1c0-3.8-4.1-7.1-8.7-7.1H58.1C82.4 13.2 112.9 2 146 2c79.4 0 144 64.6 144 144s-64.6 144-144 144z"/>
	<path id="all-os" fill="#999999" d="M98 58h69v19H98z"/>
	<path id="ten" fill="#999999" d="M98.547 170.727h69v19h-69z"/>
</svg>
