<svg xmlns="http://www.w3.org/2000/svg" width="292" height="292">
	<g fill="#999999">
		<path  d="M140.7,162.1l-19.3-19.3c-0.4-0.4-1-0.4-1.4,0s-0.4,1,0,1.4l17.8,17.8H85c-0.6,0-1,0.4-1,1s0.4,1,1,1h52.6 l-17.6,17.6c-0.4,0.4-0.4,1,0,1.4c0.2,0.2,0.5,0.3,0.7,0.3s0.5-0.1,0.7-0.3l19.3-19.3c0.1-0.1,0.2-0.2,0.2-0.3 c0.1-0.1,0.1-0.3,0.1-0.5C141,162.6,140.9,162.4,140.7,162.1z"/>
		<path d="M140,128H87.5l17.4-17.4c0.4-0.4,0.4-1,0-1.4s-1-0.4-1.4,0l-19,19c-0.2,0.1-0.4,0.3-0.5,0.5 c-0.3,0.4-0.2,0.9,0.1,1.2l19.3,19.3c0.2,0.2,0.5,0.3,0.7,0.3s0.5-0.1,0.7-0.3c0.4-0.4,0.4-1,0-1.4L87.1,130H140c0.6,0,1-0.4,1-1 S140.6,128,140,128z"/>
		<path d="M167,213.5c-3.8,0-6.9,3.1-6.9,6.9s3.1,6.9,6.9,6.9s6.9-3.1,6.9-6.9S170.8,213.5,167,213.5z M167,225.2 c-2.7,0-4.9-2.2-4.9-4.9s2.2-4.9,4.9-4.9s4.9,2.2,4.9,4.9S169.7,225.2,167,225.2z"/>
		<path d="M254,160h-53c-0.6,0-1,0.4-1,1s0.4,1,1,1h53c0.6,0,1-0.4,1-1S254.6,160,254,160z"/>
		<path d="M30.6,192.8c-3.7,0-6.7,3-6.7,6.7s3,6.7,6.7,6.7c3.7,0,6.7-3,6.7-6.7S34.3,192.8,30.6,192.8z M30.6,204.1 c-2.6,0-4.7-2.1-4.7-4.7s2.1-4.7,4.7-4.7s4.7,2.1,4.7,4.7S33.2,204.1,30.6,204.1z"/>
		<path d="M43.8,133c-1.1-5.5-6.3-9.8-12.2-9.8c-5.8,0-11.1,4.3-12.2,9.8c-5.5,0.4-9.9,5.3-9.9,11c0,6,4.9,11,10.7,11 h22.7c5.8,0,10.7-5,10.7-11C53.7,138.3,49.2,133.5,43.8,133z M42.9,153H20.2c-4.7,0-8.7-4.1-8.7-9c0-4.9,4-9,8.8-9h0.9l0.1-0.9 c0.5-4.3,4.7-8.8,10.3-8.8s9.8,4.6,10.3,8.8L42,135h1c4.7,0,8.7,4.1,8.7,9C51.7,148.9,47.7,153,42.9,153z"/>
		<path d="M146,0C89.6,0,40.6,32.1,16.3,79c-0.3,0.7-0.7,1.3-1,2c-1.6,3.3-3.1,6.6-4.5,10c-0.3,0.7-0.5,1.3-0.8,2 C3.5,109.4,0,127.3,0,146c0,13.9,1.9,27.3,5.6,40c0.2,0.7,0.4,1.3,0.6,2c2.4,8,5.5,15.7,9.1,23c0.3,0.7,0.7,1.3,1,2 c24.3,46.9,73.3,79,129.7,79c41.8,0,79.6-17.7,106.2-46c0.6-0.7,1.2-1.3,1.9-2c0.9-1,1.8-2,2.6-3c0.6-0.7,1.1-1.3,1.7-2 c21-25.3,33.6-57.7,33.6-93C292,65.4,226.5,0,146,0z M2,146c0-18.7,3.6-36.6,10.1-53H61v93H7.7C4,173.3,2,159.8,2,146z M8.3,188H62 c0.6,0,1-0.4,1-1V92c0-0.6-0.4-1-1-1H12.9c1.4-3.4,2.9-6.7,4.6-10h40.1c5.2,0,9.4,4.2,9.4,9.4v111.2c0,5.2-4.2,9.4-9.4,9.4H17.6 C13.8,203.7,10.7,196,8.3,188z M146,290c-55.2,0-103.2-31.2-127.4-77h39c6.3,0,11.4-5.1,11.4-11.4V90.4C69,84.1,63.9,79,57.6,79 H18.5C42.7,33.2,90.8,2,146,2c24.5,0,47.7,6.2,67.9,17h-35C165.2,19,154,30.2,154,43.9v204.1c0,13.7,11.2,24.9,24.9,24.9h34.8 C193.5,283.8,170.5,290,146,290z M178.9,271c-12.6,0-22.9-10.3-22.9-22.9V43.9c0-12.6,10.3-22.9,22.9-22.9h38.6 c-1.1-0.6-2.2-1.2-3.3-1.8c11,6,21.2,13.3,30.2,21.8H179c-0.6,0-1,0.4-1,1v208c0,0.6,0.4,1,1,1h65.3c-8.2,7.7-17.2,14.4-27,20 H178.9z M246.5,249H180v-3h69.5C248.5,247,247.5,248,246.5,249z M251.4,244H180v-3h74.1C253.2,242,252.3,243,251.4,244z M255.8,239 H180V43h66.6c23.2,22.7,38.8,53.1,42.5,87H201c-0.6,0-1,0.4-1,1s0.4,1,1,1h88.3c0.4,4.3,0.6,8.6,0.7,13h-89c-0.6,0-1,0.4-1,1 c0,0.6,0.4,1,1,1h89C289.7,182,276.9,214.1,255.8,239z"/>
	</g>
</svg>
