<svg xmlns="http://www.w3.org/2000/svg" width="292" height="292">
	<g fill="#999999">
		<path d="M172.729,144.007h-53.561c-11.669,0-21.162,9.493-21.162,21.162v50.584c0,0.691,0.562,1.254,1.253,1.254 h93.384c0.689,0,1.25-0.562,1.25-1.251v-50.584C193.895,153.501,184.4,144.007,172.729,144.007z M191.908,215.021H99.993v-49.852 c0-10.573,8.602-19.176,19.176-19.176h53.561c10.575,0,19.179,8.604,19.179,19.179V215.021z M146.5,130.993 c15.16,0,27.493-12.333,27.493-27.493S161.66,76.007,146.5,76.007c-15.16,0-27.493,12.333-27.493,27.493 S131.34,130.993,146.5,130.993z M146.5,77.993c14.064,0,25.507,11.442,25.507,25.507s-11.442,25.507-25.507,25.507 s-25.507-11.442-25.507-25.507S132.436,77.993,146.5,77.993z M146-0.05c-80.505,0-146,65.495-146,146s65.495,146,146,146 s146-65.495,146-146S226.505-0.05,146-0.05z M146,289.95c-79.402,0-144-64.598-144-144c0-79.402,64.598-144,144-144 c79.402,0,144,64.598,144,144C290,225.353,225.402,289.95,146,289.95z" />
	</g>
</svg>
