<svg xmlns="http://www.w3.org/2000/svg" width="292" height="292">
	<path fill="#999999" d="M115.7,156.8c-0.2,0-0.3,0-0.4-0.1C91.6,144.8,76.9,121,76.9,94.6c0-38.3,31.1-69.4,69.4-69.4 c38.3,0,69.4,31.1,69.4,69.4c0,18.9-7.8,37.1-21.3,50c-0.4,0.4-1,0.4-1.4,0c-0.4-0.4-0.4-1,0-1.4c13.1-12.5,20.7-30.2,20.7-48.6 c0-37.2-30.2-67.4-67.4-67.4c-37.2,0-67.4,30.2-67.4,67.4c0,25.6,14.3,48.7,37.3,60.3c0.5,0.2,0.7,0.8,0.4,1.3 C116.4,156.6,116.1,156.8,115.7,156.8z" />
	<path fill="#999999" d="M115.8,138.1c-0.2,0-0.4-0.1-0.6-0.2c-13.9-10-22.2-26.2-22.2-43.3c0-29.4,23.9-53.4,53.3-53.4 c29.4,0,53.4,24,53.4,53.4c0,16.3-7.3,31.5-20.1,41.7c-0.4,0.3-1.1,0.3-1.4-0.2c-0.3-0.4-0.3-1.1,0.2-1.4 c12.3-9.8,19.3-24.4,19.3-40.1c0-28.3-23.1-51.4-51.4-51.4C118,43.2,95,66.3,95,94.6c0,16.5,8,32.1,21.4,41.7 c0.4,0.3,0.6,0.9,0.2,1.4C116.4,138,116.1,138.1,115.8,138.1z" />
	<path fill="none" d="M146.3,101.6c-2.6,0-4.9,1-6.7,2.9c-1.7,1.8-2.6,4.3-2.4,6.8l0.5,8.2h17.1l0.5-8.2c0.2-2.5-0.7-5-2.4-6.8 C151.3,102.7,148.8,101.6,146.3,101.6z" />
	<path fill="none" d="M115.6,202c-0.3-2.5-1.6-4.9-3.6-6.4c-2-1.5-4.5-2.1-6.9-1.7c-2.1,0.3-4.1,1.4-5.5,3c0.1,1.9,0.3,4.2,0.8,6.8 c0.5,2.7,0.9,5.6,1.3,8.8l14.8-2.4L115.6,202z" />
	<path fill="#999999" d="M146,0C65.5,0,0,65.5,0,146s65.5,146,146,146s146-65.5,146-146S226.5,0,146,0z M146,290 c-13.4,0-26.3-1.8-38.6-5.3c-1.6-9.4-2.4-23.3-3.2-38.1c-0.6-11.1-1.3-22.5-2.3-32.2l15.8-2.5c0.5-0.1,0.9-0.6,0.8-1.1l-0.9-9.1 c-0.3-3.1-1.9-5.9-4.4-7.8c-2.4-1.9-5.5-2.6-8.5-2.1c-1.8,0.3-3.6,1.1-5.1,2.2c0.5-5.3,3.1-7.2,7.3-8.3c8.8-2.3,18.6,4,22.3,14.3 v40.4c0,0.6,0.4,1,1,1s1-0.4,1-1V200c0,0,0,0,0-0.1v-89.7c0-8.2,6.6-14.8,14.8-14.8c8.2,0,14.8,6.6,14.8,14.8v57.9c0,0.6,0.4,1,1,1 s1-0.4,1-1c0-8.2,6.6-14.8,14.8-14.8s14.8,6.6,14.8,14.8v15.6c0,0.6,0.4,1,1,1s1-0.4,1-1c0-8.2,6.6-14.8,14.8-14.8 s14.8,6.6,14.8,14.8v15.6c0,0.6,0.4,1,1,1s1-0.4,1-1c0-8.2,6.6-14.8,14.8-14.8s14.8,6.6,14.8,14.9c0,0.4,1.3,16.4,2.3,36.9 C231.6,269.1,191.2,290,146,290z M101.6,212.5c-0.4-3.2-0.8-6.1-1.3-8.8c-0.5-2.7-0.7-4.9-0.8-6.8c1.4-1.6,3.4-2.7,5.5-3 c2.5-0.4,4.9,0.2,6.9,1.7c2,1.5,3.3,3.9,3.6,6.4l0.8,8.2L101.6,212.5z M129.3,110.3v3.2c-5.2-4.8-8.3-11.7-8.3-18.8 c0-14,11.4-25.4,25.4-25.4c14,0,25.4,11.4,25.4,25.4c0,7.5-3.2,14.5-8.9,19.2v-3.6c0-9.3-7.5-16.8-16.8-16.8S129.3,101,129.3,110.3z M162.9,116.4c0.1,0,0.3-0.1,0.4-0.2c6.7-5.2,10.5-13,10.5-21.5c0-15.1-12.3-27.4-27.4-27.4S119,79.6,119,94.7 c0,8.2,3.8,16.2,10.3,21.4c0,0,0,0,0,0v5.5c-9.2-5.8-14.8-16-14.8-26.8c0-17.5,14.3-31.8,31.8-31.8c17.5,0,31.8,14.3,31.8,31.8 c0,11-5.8,21.3-15.2,27.1V116.4z M257.7,199.4c0-9.3-7.5-16.8-16.8-16.8c-6.4,0-12,3.6-14.8,8.9v-7.7c0-9.3-7.5-16.8-16.8-16.8 c-6.4,0-12,3.6-14.8,8.9v-7.7c0-9.3-7.5-16.8-16.8-16.8c-6.4,0-12,3.6-14.8,8.9v-36.2c0.1,0,0.2-0.1,0.3-0.1 c10.4-6.1,16.9-17.3,16.9-29.3c0-18.6-15.2-33.8-33.8-33.8c-18.6,0-33.8,15.2-33.8,33.8c0,12,6.4,23.1,16.8,29.2v71.5 c-5-8.8-14.3-13.7-22.8-11.5c-8.1,2.1-10.3,7.5-8,20.1c0.5,2.8,0.9,6,1.3,9.4c0,0.1,0,0.3,0,0.4c0,0.1,0.1,0.2,0.1,0.2 c1.1,9.8,1.7,21.4,2.4,32.7c0.8,14.3,1.6,27.8,3.1,37.3C45.6,266.5,2,211.3,2,146C2,66.6,66.6,2,146,2c79.4,0,144,64.6,144,144 c0,33.1-11.2,63.7-30.1,88C258.9,214.6,257.7,199.7,257.7,199.4z" />
	<path fill="#999999" d="M146.3,99.6c-3.1,0-6,1.3-8.1,3.5c-2.1,2.2-3.2,5.3-3,8.3l0.6,9.1c0,0.5,0.5,0.9,1,0.9h19c0.5,0,1-0.4,1-0.9 l0.6-9.1c0.2-3.1-0.8-6.1-3-8.3C152.3,100.9,149.4,99.6,146.3,99.6z M155.4,111.3l-0.5,8.2h-17.1l-0.5-8.2c-0.2-2.5,0.7-5,2.4-6.8 c1.7-1.9,4.1-2.9,6.7-2.9c2.5,0,5,1.1,6.7,2.9C154.7,106.4,155.6,108.8,155.4,111.3z" />
</svg>
