<svg xmlns="http://www.w3.org/2000/svg" width="292" height="292">
	<g fill="#999999">
		<path d="M146,50.6c-0.6,0-1-0.4-1-1V39.3c0-0.6,0.4-1,1-1s1,0.4,1,1v10.3C147,50.1,146.6,50.6,146,50.6z" />
		<path d="M118.7,59.7c-0.3,0-0.6-0.1-0.8-0.4l-6.1-8.3c-0.3-0.4-0.2-1.1,0.2-1.4c0.4-0.3,1.1-0.2,1.4,0.2l6.1,8.3 c0.3,0.4,0.2,1.1-0.2,1.4C119.1,59.6,118.9,59.7,118.7,59.7z" />
		<path d="M102,83.1c-0.1,0-0.2,0-0.3,0l-9.8-3.2c-0.5-0.2-0.8-0.7-0.6-1.3c0.2-0.5,0.7-0.8,1.3-0.6l9.8,3.2 c0.5,0.2,0.8,0.7,0.6,1.3C102.8,82.9,102.4,83.1,102,83.1z" />
		<path d="M92.5,115.1c-0.4,0-0.8-0.3-1-0.7c-0.2-0.5,0.1-1.1,0.6-1.3l9.8-3.2c0.5-0.2,1.1,0.1,1.3,0.6 c0.2,0.5-0.1,1.1-0.6,1.3l-9.8,3.2C92.7,115.1,92.6,115.1,92.5,115.1z" />
		<path d="M113.3,143.4c-0.2,0-0.4-0.1-0.6-0.2c-0.4-0.3-0.5-1-0.2-1.4l6.1-8.3c0.3-0.4,0.9-0.5,1.4-0.2 c0.4,0.3,0.5,1,0.2,1.4l-6.1,8.3C113.9,143.2,113.6,143.4,113.3,143.4z" />
		<path d="M180.2,142.9c-0.3,0-0.6-0.1-0.8-0.4l-6.1-8.3c-0.3-0.4-0.2-1.1,0.2-1.4c0.4-0.3,1.1-0.2,1.4,0.2l6.1,8.3 c0.3,0.4,0.2,1.1-0.2,1.4C180.6,142.8,180.4,142.9,180.2,142.9z" />
		<path d="M200.6,114.3c-0.1,0-0.2,0-0.3,0l-9.8-3.2c-0.5-0.2-0.8-0.7-0.6-1.3c0.2-0.5,0.7-0.8,1.3-0.6l9.8,3.2 c0.5,0.2,0.8,0.7,0.6,1.3C201.4,114,201.1,114.3,200.6,114.3z" />
		<path d="M190.6,82.3c-0.4,0-0.8-0.3-1-0.7c-0.2-0.5,0.1-1.1,0.6-1.3l9.8-3.2c0.5-0.2,1.1,0.1,1.3,0.6 c0.2,0.5-0.1,1.1-0.6,1.3l-9.8,3.2C190.8,82.3,190.7,82.3,190.6,82.3z" />
		<path d="M173.5,59.2c-0.2,0-0.4-0.1-0.6-0.2c-0.4-0.3-0.5-1-0.2-1.4l6.1-8.3c0.3-0.4,0.9-0.5,1.4-0.2 c0.4,0.3,0.5,1,0.2,1.4l-6.1,8.3C174.1,59.1,173.8,59.2,173.5,59.2z" />
		<path d="M156.5,120.8l0.6-9.2c0.2-3.1-0.9-6.2-3-8.4c-2.1-2.3-5-3.5-8.1-3.5c-0.1,0-0.2,0-0.3,0 c-3,0.1-5.8,1.3-7.8,3.5c-2.1,2.3-3.2,5.3-3,8.4l0.6,9.2c0,0.5,0.5,0.9,1,0.9h19C156,121.8,156.5,121.4,156.5,120.8z M155.1,111.5 l-0.5,8.3h-17.1l-0.5-8.3c-0.2-2.5,0.7-5,2.5-6.9c1.7-1.9,4.1-2.9,6.6-2.9c0.1,0,0.2,0,0.2,0c2.4,0.1,4.7,1.1,6.4,2.9 S155.3,109,155.1,111.5z" />
		<path d="M146,0C65.5,0,0,65.5,0,146c0,66.7,44.9,123,106.1,140.4l0,0l0,0c12.7,3.6,26.1,5.5,39.9,5.5 c80.5,0,146-65.5,146-146S226.5,0,146,0z M2,146C2,66.6,66.6,2,146,2s144,64.6,144,144c0,33.2-11.3,63.8-30.2,88.2 c-1-19.5-2.2-34.8-2.2-34.8c0-9.2-7.5-16.8-16.8-16.8c-6.4,0-11.9,3.6-14.8,8.8v-7.6c0-9.2-7.6-16.8-17-16.8 c-6.5,0-12.1,3.6-15,8.9v-7.7c0-9.4-7.2-16.8-16.5-16.8c-6.3,0-11.7,3.5-14.5,8.6v-36.5c10.3-6.1,16.7-17.2,16.7-29.2 c0-18.7-15.2-33.8-33.8-33.8S112,75.8,112,94.4c0,12,6.5,23.3,16.9,29.3h0.1v71.6c-2-3.8-4.9-7-8.6-9.2c-4.6-2.7-9.8-3.6-14.3-2.4 c-8,2.1-10.1,7.5-7.9,20.1c2,11.1,2.9,27.3,3.8,42.8c0.8,14.3,1.6,27.8,3.1,37.3C45.6,266.4,2,211.2,2,146z M107.2,284.7 c-1.6-9.4-2.4-23.3-3.2-38c-0.6-11.1-1.3-22.5-2.3-32.2l16-2.6c0.5-0.1,0.9-0.6,0.8-1.1l-0.9-9.1c-0.3-3.1-1.8-5.8-4.3-7.7 s-5.5-2.7-8.6-2.2c-2,0.3-3.8,1.2-5.4,2.5c0.4-5.5,3-7.5,7.2-8.6c4-1.1,8.7-0.3,12.8,2.2c4.8,2.8,8.2,7.5,9.6,13.1v38.7 c0,0.6,0.4,1,1,1s1-0.4,1-1V116.3v-0.6v-5.4c0-8.1,6.7-14.8,15-14.8s15,6.6,15,14.8v57.9c0,0.6,0.4,1,1,1s1-0.4,1-1 c0-8.3,6.4-14.8,14.5-14.8s14.5,6.5,14.5,14.8v15.6c0,0.6,0.4,1,1,1s1-0.4,1-1c0-8.1,6.7-14.8,15-14.8s15,6.6,15,14.8v15.6 c0,0.6,0.4,1,1,1s1-0.4,1-1c0-8.1,6.6-14.8,14.8-14.8s14.8,6.6,14.8,14.8c0,0.2,1.3,16.4,2.3,36.9c-27.5,34-68.3,53.6-112.1,53.6 c-12.9,0-25.8-1.7-38.1-5.1C107.5,284.8,107.4,284.7,107.2,284.7z M100.1,203.6c-0.4-2.5-0.7-4.6-0.8-6.4c0,0,0.1,0,0.1-0.1 c1.4-1.7,3.5-2.9,5.7-3.3c2.5-0.4,5,0.2,7,1.8s3.3,3.8,3.5,6.4l0.8,8.1l-15,2.4C101.1,209.3,100.6,206.3,100.1,203.6z M129,110.3 v3.5c-5.4-4.8-8.5-11.6-8.5-19c0-14,11.4-25.4,25.4-25.4s25.4,11.4,25.4,25.4c0,7.2-3,13.9-8.2,18.7v-3.2c0-9.2-7.6-16.8-17-16.8 S129,101.1,129,110.3z M163,116.2c6.5-5.2,10.2-13,10.2-21.3c0-15.1-12.3-27.4-27.4-27.4s-27.4,12.3-27.4,27.4 c0,8.5,3.8,16.3,10.5,21.6v5c-9.3-5.8-15-16-15-27c0-17.6,14.3-31.8,31.8-31.8c17.6,0,31.8,14.3,31.8,31.8c0,10.8-5.6,21-14.7,26.8 v-5.1H163z" />
	</g>
</svg>
