<svg xmlns="http://www.w3.org/2000/svg" width="292" height="292">
	<g fill="#999999">
		<path d="M276.017,144.967c-1.682,0-3.05,1.368-3.05,3.05c0,1.683,1.368,3.051,3.05,3.051
			c1.683,0,3.051-1.368,3.051-3.051C279.067,146.335,277.699,144.967,276.017,144.967z M276.017,149.067
			c-0.579,0-1.05-0.472-1.05-1.051s0.471-1.05,1.05-1.05s1.051,0.471,1.051,1.05S276.596,149.067,276.017,149.067z M285.034,147.017
			h-2.651c-0.553,0-1,0.447-1,1s0.447,1,1,1h2.651c0.553,0,1-0.447,1-1S285.587,147.017,285.034,147.017z M62.734,153.643
			c0.165,0.371,0.529,0.594,0.914,0.594c0.115,0,0.232-0.02,0.346-0.062l3.808-1.406c1.423-0.525,2.578-1.629,3.167-3.026
			s0.574-2.994-0.043-4.38c-0.617-1.386-1.793-2.466-3.226-2.963c-1.435-0.499-3.026-0.378-4.368,0.328l-3.594,1.889
			c-0.466,0.245-0.663,0.811-0.448,1.292L62.734,153.643z M64.263,144.498c0.867-0.456,1.854-0.531,2.781-0.209
			c0.926,0.321,1.656,0.991,2.055,1.886c0.398,0.896,0.408,1.887,0.027,2.79s-1.097,1.588-2.017,1.927l-2.929,1.082l-2.682-6.023
			L64.263,144.498z M281.226,151.812c-0.391-0.391-1.023-0.391-1.414,0s-0.391,1.023,0,1.414l1.874,1.874
			c0.195,0.195,0.451,0.293,0.707,0.293s0.512-0.098,0.707-0.293c0.391-0.391,0.391-1.023,0-1.414L281.226,151.812z M163.123,67
			h26.103c1.104,0,2-0.896,2-2s-0.896-2-2-2h-26.103c-1.104,0-2,0.896-2,2S162.019,67,163.123,67z M70.281,81.988h-6.562
			c-2.608,0-4.731,2.123-4.731,4.731v34.523c0,2.608,2.123,4.731,4.731,4.731h6.562c2.608,0,4.731-2.123,4.731-4.731V86.719
			C75.012,84.11,72.89,81.988,70.281,81.988z M72.988,121.242c0,1.493-1.214,2.707-2.707,2.707h-6.562
			c-1.493,0-2.707-1.214-2.707-2.707V115h11.976V121.242z M72.988,113H61.012v-8h11.976V113z M72.988,103H61.012v-8h11.976V103z
			 M72.988,93H61.012v-6.281c0-1.493,1.214-2.707,2.707-2.707h6.562c1.493,0,2.707,1.214,2.707,2.707V93z M270.348,140.934
			c-0.391-0.39-1.023-0.39-1.414,0s-0.391,1.024,0,1.415l1.875,1.874c0.195,0.195,0.451,0.292,0.707,0.292s0.512-0.098,0.707-0.293
			c0.391-0.391,0.391-1.024,0-1.415L270.348,140.934z M70.281,169.988h-6.562c-2.608,0-4.731,2.122-4.731,4.73v34.523
			c0,2.608,2.123,4.73,4.731,4.73h6.562c2.608,0,4.731-2.122,4.731-4.73v-34.523C75.012,172.11,72.89,169.988,70.281,169.988z
			 M72.988,209.242c0,1.492-1.214,2.707-2.707,2.707h-6.562c-1.493,0-2.707-1.215-2.707-2.707V203h11.976V209.242z M72.988,201H61.012
			v-8h11.976V201z M72.988,191H61.012v-8h11.976V191z M72.988,181H61.012v-6.281c0-1.492,1.214-2.707,2.707-2.707h6.562
			c1.493,0,2.707,1.215,2.707,2.707V181z M276.017,142.65c0.553,0,1-0.448,1-1V139c0-0.552-0.447-1-1-1s-1,0.448-1,1v2.65
			C275.017,142.203,275.464,142.65,276.017,142.65z M270.809,151.812l-1.875,1.874c-0.391,0.391-0.391,1.023,0,1.414
			c0.195,0.195,0.451,0.293,0.707,0.293s0.512-0.098,0.707-0.293l1.875-1.874c0.391-0.391,0.391-1.023,0-1.414
			S271.199,151.421,270.809,151.812z M270.65,148.017c0-0.553-0.447-1-1-1H267c-0.553,0-1,0.447-1,1s0.447,1,1,1h2.65
			C270.203,149.017,270.65,148.569,270.65,148.017z M276.017,153.383c-0.553,0-1,0.447-1,1v2.651c0,0.553,0.447,1,1,1s1-0.447,1-1
			v-2.651C277.017,153.83,276.569,153.383,276.017,153.383z M280.519,144.515c0.256,0,0.512-0.098,0.707-0.293l1.874-1.874
			c0.391-0.391,0.391-1.023,0-1.414s-1.023-0.391-1.414,0l-1.874,1.874c-0.391,0.391-0.391,1.023,0,1.414
			C280.007,144.417,280.263,144.515,280.519,144.515z M146-0.05c-80.505,0-146,65.495-146,146s65.495,146,146,146s146-65.495,146-146
			S226.505-0.05,146-0.05z M268.381,70.161l-0.501,15.297c0,1.404-1.156,2.547-2.577,2.547H99.718l-9.716-0.002v0.002h-2.754
			c-1.421,0-2.578-1.143-2.578-2.58l-0.718-21.882c0-1.404,1.156-2.547,2.578-2.547h175.663
			C264.37,63.965,266.432,67.024,268.381,70.161z M259.003,90.039v110.963l-167.005-0.041V89.998L259.003,90.039z M146,1.95
			c46.76,0,88.367,22.418,114.689,57.054H86.53c-1.068,0-2.039,0.381-2.817,0.996H55.708C49.252,60,44,65.252,44,71.708v77.812
			l-3.756,1.863c0.799-1.955,0.832-4.221-0.093-6.298c-1.8-4.042-6.552-5.865-10.593-4.066l-1.486,0.662
			c0.07-0.154,0.137-0.312,0.198-0.472c0.769-2.001,0.711-4.181-0.161-6.139c-0.872-1.958-2.454-3.459-4.455-4.228
			c-2.001-0.768-4.181-0.712-6.139,0.161l-1.491,0.664c0.929-2.024,1.018-4.423,0.043-6.613c-1.792-4.025-6.513-5.852-10.542-4.09
			c-0.156,0.05-0.659,0.211-1.42,0.457C15.783,53.664,74.96,1.95,146,1.95z M82.205,71H47.609c-0.574,0-1.11,0.145-1.593,0.382
			C46.191,66.18,50.465,62,55.708,62h26.548c-0.181,0.492-0.295,1.018-0.295,1.575L82.205,71z M2,145.95
			c0-7.585,0.594-15.033,1.729-22.305c1.499-0.487,2.405-0.775,2.454-0.791c0.035-0.011,0.07-0.024,0.104-0.04
			c1.471-0.654,3.107-0.696,4.609-0.121c1.502,0.577,2.69,1.704,3.344,3.174c1.35,3.031-0.016,6.595-3.044,7.949l-0.009,0.004
			c-0.504,0.225-0.731,0.816-0.507,1.32c0.225,0.505,0.815,0.73,1.32,0.507l6.329-2.817c1.47-0.654,3.106-0.697,4.608-0.121
			c1.502,0.577,2.69,1.704,3.344,3.174c0.655,1.47,0.697,3.106,0.121,4.608c-0.576,1.501-1.703,2.689-3.171,3.343l-0.002,0.001
			c-0.504,0.225-0.731,0.816-0.507,1.32s0.813,0.73,1.32,0.507l6.329-2.817c3.033-1.351,6.601,0.018,7.953,3.053
			c1.279,2.873,0.119,6.223-2.582,7.719l-0.508,0.252c-0.488,0.241-0.692,0.829-0.46,1.321c0.231,0.492,0.817,0.712,1.312,0.487
			c0.201-0.089,0.396-0.186,0.585-0.289l26.916-13.354c3.037-1.35,6.603,0.02,7.953,3.053c1.351,3.035-0.019,6.602-3.072,7.961
			l-56.977,26.766c-0.5,0.235-0.715,0.831-0.48,1.33c0.17,0.363,0.53,0.575,0.906,0.575c0.143,0,0.287-0.03,0.425-0.095l15.358-7.215
			c0.158,0.071,0.329,0.117,0.513,0.098c5.333-0.61,9.225,2.627,9.773,5.96c0.194,1.179,0.216,2.238-0.825,3.195
			c0.005-0.493-0.032-0.984-0.156-1.455c-0.389-1.467-1.377-2.72-2.713-3.439c-1.336-0.721-2.927-0.855-4.365-0.372l-3.848,1.293
			c-0.5,0.168-0.784,0.695-0.648,1.205l1.694,6.369c-4.041,1.323-8.61,3.051-13.088,4.749c-1.34,0.508-2.658,1.007-3.953,1.492
			C4.855,178.611,2,162.609,2,145.95z M73.365,144.276c-1.8-4.042-6.552-5.865-10.631-4.049l-9.431,4.679
			c1.209-6.519,6.908-11.404,13.699-11.404c7.702,0,13.968,6.266,13.968,13.968c0,7.701-6.266,13.967-13.968,13.967
			c-2.607,0-5.09-0.718-7.28-2.069l9.576-4.499C73.339,153.07,75.164,148.317,73.365,144.276z M34.923,184.934
			c-0.71,0.276-1.564,0.543-2.605,0.801c-1.02,0.253-2.131,0.573-3.285,0.926l-1.429-5.372l2.959-0.994
			c0.93-0.313,1.917-0.229,2.78,0.236c0.863,0.465,1.477,1.243,1.728,2.19C35.256,183.425,35.191,184.227,34.923,184.934z M146,289.95
			c-62.039,0-115.041-39.436-135.254-94.556c1.311-0.492,2.644-0.995,3.999-1.51c4.691-1.779,9.488-3.596,13.627-4.923
			c0.076-0.002,0.153-0.01,0.23-0.03c0.1-0.027,0.184-0.08,0.267-0.132c1.403-0.442,2.724-0.824,3.93-1.123
			c5.808-1.438,7.815-3.549,7.16-7.531c-0.645-3.917-4.095-6.823-8.432-7.532L44,166.754v57.538C44,230.748,49.252,236,55.708,236
			h202.557C231.852,268.866,191.349,289.95,146,289.95z M259.847,234H55.708c-5.234,0-9.503-4.167-9.691-9.355
			c0.482,0.236,1.018,0.382,1.591,0.382h218.659C264.239,228.101,262.098,231.095,259.847,234z M47.609,223.026
			c-0.887,0-1.609-0.702-1.609-1.565v-55.647l11.615-5.457c2.747,2.009,5.974,3.079,9.386,3.079c8.805,0,15.968-7.163,15.968-15.967
			c0-8.805-7.163-15.968-15.968-15.968c-8.258,0-15.101,6.314-15.861,14.476l-5.14,2.55V74.566C46,73.703,46.722,73,47.609,73h34.661
			l0.409,12.458c0,2.502,2.049,4.538,4.569,4.538h2.754v112.959L260,202.997l0.997,0.001V89.996h4.306c2.52,0,4.569-2.036,4.568-4.505
			l0.4-12.203C282.801,94.63,290,119.463,290,145.95c0,28.332-8.229,54.776-22.416,77.076H47.609z"
		/>
	</g>
</svg>
