<svg xmlns="http://www.w3.org/2000/svg" width="292" height="292">
	<g fill="#999999">
		<path d="M146,0C65.5,0,0,65.4,0,146s65.5,146,146,146s146-65.5,146-146S226.5,0,146,0z M290,146 c0,19.5-3.9,38.1-10.9,55H211V57h48.2C278.5,81.5,290,112.4,290,146z M257.6,55H209v148h69.2c-2.2,5.2-4.8,10.2-7.6,15h-65.2 c-2.6,0-4.4-1.8-4.4-4.4v-169c0-2.6,1.9-4.6,4.4-4.6h38C248.5,44.7,253.2,49.7,257.6,55z M37.9,241c-4.2-4.7-8-9.8-11.6-15H77 c0.6,0,1-0.4,1-1V62c0-0.6-0.4-1-1-1H29.8c4.1-5.7,8.7-11,13.6-16h24.1C79.9,45,90,55.4,90,68.3v150.2c0,12.6-9.9,22.5-22.5,22.5 L37.9,241C38,241,38,241,37.9,241z M76,220H22.5c-0.4-0.7-0.8-1.3-1.2-2H76V220z M76,222v2H25c-0.4-0.7-0.8-1.3-1.3-2H76z M28.4,63 H76v153H20.2C8.6,195.3,2,171.4,2,146C2,115.1,11.8,86.5,28.4,63z M39.7,243h27.8c13.7,0,24.5-10.8,24.5-24.5V68.3 C92,54.3,81,43,67.5,43H45.4C71.4,17.6,106.9,2,146,2c36.5,0,69.8,13.6,95.2,36h-35.8c-3.7,0-6.4,2.8-6.4,6.6v169 c0,3.7,2.7,6.4,6.4,6.4h64.1c-3.1,5.2-6.6,10.2-10.4,15H182v20h57.9c-25.2,21.8-58.1,35-93.9,35C104,290,66.1,271.8,39.7,243z M242.2,253H184v-16h73.5C252.8,242.7,247.7,248.1,242.2,253z" />
		<path d="M151.7,135c-0.7,0.5-1.1,1.4-1.1,2.2c0,1.6,1.3,2.9,2.9,2.9c0.8,0,1.5-0.3,2-0.8l0.1-0.1 c1.7-1.7,4.1-2.7,6.5-2.7c0,0,0.1,0,0.1,0c2.5,0,4.8,1,6.6,2.8c1.8,1.8,2.8,4.1,2.8,6.7s-1,4.9-2.8,6.7c-3.7,3.7-9.7,3.7-13.3,0.1 l-15.1-17.4c-2.9-2.9-6.7-4.4-10.7-4.4s-7.9,1.6-10.7,4.4c-2.9,2.9-4.4,6.7-4.4,10.7c0,4,1.6,7.9,4.4,10.7 c5.9,5.9,15.5,5.9,21.3,0.1c0.6-0.5,1-1.3,1-2.2c0-1.6-1.3-2.9-2.9-2.9c-0.8,0-1.5,0.3-2,0.8l-0.1,0.1c-3.7,3.7-9.6,3.6-13.3,0 c-3.7-3.7-3.7-9.7,0-13.3c3.7-3.7,9.7-3.7,13.3-0.1l15.1,17.4c2.9,2.9,6.7,4.4,10.7,4.4s7.9-1.6,10.7-4.4s4.4-6.7,4.4-10.7 c0-4-1.6-7.9-4.4-10.7C167.1,129.4,157.6,129.3,151.7,135z M171.5,155.3c-2.5,2.5-5.8,3.9-9.3,3.9s-6.8-1.4-9.3-3.8l-15.1-17.4 c-2.2-2.2-5.2-3.3-8.1-3.3s-5.9,1.1-8.1,3.3c-4.5,4.5-4.5,11.7,0,16.2c4.5,4.5,11.7,4.5,16.1,0.1l0.1-0.1c0.2-0.2,0.3-0.2,0.6-0.2 c0.5,0,0.9,0.4,0.9,0.9c0,0.3-0.1,0.5-0.4,0.7c-5.1,5.1-13.5,5-18.5-0.1c-2.5-2.5-3.9-5.8-3.9-9.3c0-3.5,1.4-6.8,3.9-9.3 s5.8-3.9,9.3-3.9s6.8,1.4,9.3,3.8l15.1,17.4c4.5,4.5,11.7,4.5,16.2,0c2.2-2.2,3.3-5,3.3-8.1s-1.2-5.9-3.3-8.1c-2.2-2.2-5-3.4-8-3.4 c0,0-0.1,0-0.1,0c-3,0-5.8,1.2-7.9,3.3l-0.1,0.1c-0.2,0.2-0.4,0.3-0.6,0.3c-0.5,0-0.9-0.4-0.9-0.9c0-0.3,0.1-0.5,0.4-0.7 c5.1-5,13.4-4.9,18.5,0.1c2.5,2.5,3.9,5.8,3.9,9.3C175.4,149.5,174,152.8,171.5,155.3z" />
	</g>
</svg>
