<svg xmlns="http://www.w3.org/2000/svg" width="292" height="292">
	<g fill="#999999">
		<path d="M180.3,108.3c-2-2-4.6-4-4.7-4.1c-1.2-0.8-2.6-1.2-4.1-1.2c-4.1,0-7.5,3.4-7.5,7.5c0,1.6,0.5,3.1,1.5,4.5 c0,0,1,1.2,3.9,3.7c8,6.9,12.6,16.8,12.6,27.3c0,19.9-16.1,36-36,36c-19.9,0-36-16.1-36-36c0-10.5,4.6-20.5,12.6-27.3 c2.9-2.5,3.9-3.6,4-3.7c1-1.3,1.5-2.8,1.5-4.4c0-4.1-3.4-7.5-7.5-7.5c-1.1,0-2.2,0.2-3.2,0.7l0,0l-0.8,0.5c0,0,0,0,0,0l0.5,0.8 l-0.6-0.7c0,0-0.1,0.1-0.3,0.2c-1,0.8-3.5,2.8-5.6,4.9C100.5,119,95,132,95,146c0,28.1,22.9,51,51,51s51-22.9,51-51 C197,131.6,190.9,117.9,180.3,108.3z M146,195c-27,0-49-22-49-49c0-13.4,5.3-25.8,14.9-35.2c2-2.1,4.5-4,5.4-4.8 c0.1-0.1,0.2-0.1,0.3-0.2c0.9-0.5,1.9-0.8,2.9-0.8c3,0,5.5,2.5,5.5,5.5c0,1.2-0.4,2.3-1,3.2c0,0-1,1.1-3.7,3.5 c-8.4,7.2-13.3,17.7-13.3,28.8c0,21,17,38,38,38c21,0,38-17,38-38c0-11.1-4.8-21.6-13.3-28.9c-2.7-2.3-3.6-3.4-3.6-3.4 c-0.7-1-1.1-2.1-1.1-3.3c0-3,2.5-5.5,5.5-5.5c1.1,0,2.1,0.3,3,0.9c0,0,2.5,2,4.5,3.9c10.2,9.3,16,22.5,16,36.2 C195,173,173,195,146,195z" />
		<path d="M146,145c3.9,0,7-3.1,7-7V96c0-3.9-3.1-7-7-7c-3.9,0-7,3.1-7,7v42C139,141.8,142.1,145,146,145z M141,96 c0-2.8,2.2-5,5-5s5,2.2,5,5v42c0,2.8-2.2,5-5,5s-5-2.2-5-5V96z" />
		<path d="M146,0C65.5,0,0,65.4,0,146s65.5,146,146,146s146-65.5,146-146S226.5,0,146,0z M146,290 C66.6,290,2,225.4,2,146C2,66.5,66.6,2,146,2c79.4,0,144,64.6,144,144C290,225.4,225.4,290,146,290z" />
	</g>
</svg>
