<svg xmlns="http://www.w3.org/2000/svg" viewBox="0 0 878 490">
	<path fill="#808080" d="M492,352.4H144.2c-9.2,0-16.7-7.5-16.7-16.7V113.1c0-9.2,7.5-16.7,16.7-16.7H492c9.2,0,16.7,7.5,16.7,16.7 v222.6C508.7,344.9,501.2,352.4,492,352.4z M144.2,100.3c-7,0-12.7,5.7-12.7,12.7v222.6c0,7,5.7,12.7,12.7,12.7H492 c7,0,12.7-5.7,12.7-12.7V113.1c0-7-5.7-12.7-12.7-12.7H144.2z" />
	<path fill="#808080" d="M485.8,329.6H145.7V119.1h340.1V329.6z M149.7,325.6h332.1V123.1H149.7V325.6z" />
	<path fill="#808080" d="M543.7,392.1h-459v-24.9h459V392.1z M88.6,388.1h451v-16.9h-451V388.1z" />
	<path fill="#808080" d="M792.6,347.8H602V102.7h190.7V347.8z M606,343.8h182.7V106.7H606V343.8z" />
	<path fill="#808080" d="M574,240.9c0-0.1,0-0.1-0.1-0.2c0-0.1,0-0.1-0.1-0.2c0-0.1-0.1-0.1-0.1-0.2c0,0,0-0.1-0.1-0.1 c-0.1-0.1-0.2-0.2-0.3-0.3l-12.1-12.1c-0.8-0.8-2-0.8-2.8,0s-0.8,2,0,2.8l8.7,8.7h-29.4c-1.1,0-2,0.9-2,2c0,1.1,0.9,2,2,2h29.4 l-8.7,8.7c-0.8,0.8-0.8,2,0,2.8c0.4,0.4,0.9,0.6,1.4,0.6s1-0.2,1.4-0.6l12.1-12.1c0.1-0.1,0.2-0.2,0.3-0.3c0,0,0-0.1,0.1-0.1 c0-0.1,0.1-0.1,0.1-0.2c0-0.1,0-0.1,0.1-0.2c0-0.1,0-0.1,0.1-0.2c0-0.1,0-0.3,0-0.4c0,0,0,0,0,0l0,0 C574.1,241.1,574.1,241,574,240.9z" />
	<path fill="#808080" d="M536,213.4c0,0.1,0,0.1-0.1,0.2c0,0.1,0,0.1-0.1,0.2c-0.1,0.3-0.1,0.5,0,0.8c0,0.1,0,0.1,0.1,0.2 c0,0.1,0,0.1,0.1,0.2c0,0.1,0.1,0.1,0.1,0.2c0,0,0,0.1,0.1,0.1c0.1,0.1,0.2,0.2,0.3,0.3l12.1,12.1c0.4,0.4,0.9,0.6,1.4,0.6 s1-0.2,1.4-0.6c0.8-0.8,0.8-2,0-2.8l-8.7-8.7h29.4c1.1,0,2-0.9,2-2s-0.9-2-2-2h-29.4l8.7-8.7c0.8-0.8,0.8-2,0-2.8 c-0.8-0.8-2-0.8-2.8,0l-12.1,12.1c-0.1,0.1-0.2,0.2-0.3,0.3c0,0,0,0.1-0.1,0.1C536,213.3,536,213.3,536,213.4z" />
	<path fill="#808080" d="M280.5,218.9h-2.5v-12.8c0-1.1-0.9-2-2-2c-1.1,0-2,0.9-2,2v12.8h-13.5v-12.8c0-1.1-0.9-2-2-2c-1.1,0-2,0.9-2,2 v12.8h-0.3c-1.1,0-2,0.9-2,2s0.9,2,2,2h0.3v15.3c0,1.1,0.9,2,2,2c1.1,0,2-0.9,2-2v-15.3h13.5v15.3c0,1.1,0.9,2,2,2c1.1,0,2-0.9,2-2 v-15.3h2.5c1.1,0,2-0.9,2-2S281.7,218.9,280.5,218.9z" />
	<path fill="#808080" d="M305.5,207.8c1.1,0,2-0.9,2-2s-0.9-2-2-2h-16.7c-1.1,0-2,0.9-2,2s0.9,2,2,2h0.3V221h-0.3c-1.1,0-2,0.9-2,2 s0.9,2,2,2h0.3v11.3h-0.3c-1.1,0-2,0.9-2,2c0,1.1,0.9,2,2,2h16.7c1.1,0,2-0.9,2-2c0-1.1-0.9-2-2-2H293V225h6.2c1.1,0,2-0.9,2-2 s-0.9-2-2-2H293v-13.2H305.5z" />
	<path fill="#808080" d="M330.5,236.1h-13.7v-30c0-1.1-0.9-2-2-2s-2,0.9-2,2v30.3c-0.6,0.3-1,1-1,1.7c0,1.1,0.9,2,2,2h16.7 c1.1,0,2-0.9,2-2S331.6,236.1,330.5,236.1z" />
	<path fill="#808080" d="M352.9,236.1h-13.7v-30c0-1.1-0.9-2-2-2c-1.1,0-2,0.9-2,2v30.3c-0.6,0.3-1,1-1,1.7c0,1.1,0.9,2,2,2h16.7 c1.1,0,2-0.9,2-2S354,236.1,352.9,236.1z" />
	<path fill="#808080" d="M368.6,203.5c-8,0-14.5,8.6-14.5,19.1s6.5,19.1,14.5,19.1c8,0,14.5-8.6,14.5-19.1S376.5,203.5,368.6,203.5z M368.6,237.6c-5.8,0-10.5-6.8-10.5-15.1c0-8.3,4.7-15.1,10.5-15.1c5.8,0,10.5,6.8,10.5,15.1C379,230.8,374.3,237.6,368.6,237.6z" />
	<path fill="#808080" d="M659.2,218.9h-2.5v-12.8c0-1.1-0.9-2-2-2c-1.1,0-2,0.9-2,2v12.8h-13.5v-12.8c0-1.1-0.9-2-2-2s-2,0.9-2,2v12.8 H635c-1.1,0-2,0.9-2,2s0.9,2,2,2h0.3v15.3c0,1.1,0.9,2,2,2s2-0.9,2-2v-15.3h13.5v15.3c0,1.1,0.9,2,2,2c1.1,0,2-0.9,2-2v-15.3h2.5 c1.1,0,2-0.9,2-2S660.3,218.9,659.2,218.9z" />
	<path fill="#808080" d="M684.1,207.8c1.1,0,2-0.9,2-2s-0.9-2-2-2h-16.7c-1.1,0-2,0.9-2,2s0.9,2,2,2h0.3V221h-0.3c-1.1,0-2,0.9-2,2 s0.9,2,2,2h0.3v11.3h-0.3c-1.1,0-2,0.9-2,2c0,1.1,0.9,2,2,2h16.7c1.1,0,2-0.9,2-2c0-1.1-0.9-2-2-2h-12.5V225h6.2c1.1,0,2-0.9,2-2 s-0.9-2-2-2h-6.2v-13.2H684.1z" />
	<path fill="#808080" d="M709.1,236.1h-13.7v-30c0-1.1-0.9-2-2-2s-2,0.9-2,2v30.3c-0.6,0.3-1,1-1,1.7c0,1.1,0.9,2,2,2h16.7 c1.1,0,2-0.9,2-2S710.2,236.1,709.1,236.1z" />
	<path fill="#808080" d="M731.6,236.1h-13.7v-30c0-1.1-0.9-2-2-2c-1.1,0-2,0.9-2,2v30.3c-0.6,0.3-1,1-1,1.7c0,1.1,0.9,2,2,2h16.7 c1.1,0,2-0.9,2-2S732.7,236.1,731.6,236.1z" />
	<path fill="#808080" d="M747.2,203.5c-8,0-14.5,8.6-14.5,19.1s6.5,19.1,14.5,19.1c8,0,14.5-8.6,14.5-19.1S755.2,203.5,747.2,203.5z M747.2,237.6c-5.8,0-10.5-6.8-10.5-15.1c0-8.3,4.7-15.1,10.5-15.1c5.8,0,10.5,6.8,10.5,15.1C757.7,230.8,753,237.6,747.2,237.6z" />
</svg>
