<svg xmlns="http://www.w3.org/2000/svg" viewBox="0 0 878 490">
	<path fill="#808080" d="M285.7,37.3c0.3,0.8,1.1,1.3,1.9,1.3c0.2,0,0.5,0,0.7-0.1c1-0.4,1.6-1.6,1.2-2.6l-7.1-18.4 c-0.4-1-1.6-1.6-2.6-1.2c-1,0.4-1.6,1.6-1.2,2.6L285.7,37.3z" />
	<path fill="#808080" d="M227.5,62.5l16.5,10.7c0.3,0.2,0.7,0.3,1.1,0.3c0.7,0,1.3-0.3,1.7-0.9c0.6-0.9,0.3-2.2-0.6-2.8l-16.5-10.7 c-0.9-0.6-2.2-0.3-2.8,0.6C226.3,60.6,226.6,61.9,227.5,62.5z" />
	<path fill="#808080" d="M231.3,122.8l-19.7,1c-1.1,0.1-2,1-1.9,2.1c0.1,1.1,0.9,1.9,2,1.9c0,0,0.1,0,0.1,0l19.7-1c1.1-0.1,2-1,1.9-2.1 C233.3,123.6,232.4,122.7,231.3,122.8z" />
	<path fill="#808080" d="M250.3,174.4L235,186.8c-0.9,0.7-1,2-0.3,2.8c0.4,0.5,1,0.7,1.6,0.7c0.4,0,0.9-0.1,1.3-0.5l15.3-12.4 c0.9-0.7,1-2,0.3-2.8C252.4,173.8,251.1,173.7,250.3,174.4z" />
	<path fill="#808080" d="M298.5,203.6c-1.1-0.3-2.2,0.3-2.5,1.4l-5.1,19c-0.3,1.1,0.4,2.2,1.4,2.5c0.2,0,0.4,0.1,0.5,0.1 c0.9,0,1.7-0.6,1.9-1.5l5.1-19C300.2,205,299.5,203.9,298.5,203.6z" />
	<path fill="#808080" d="M396.4,165.5c-0.9-0.6-2.2-0.3-2.8,0.6c-0.6,0.9-0.3,2.2,0.6,2.8l16.5,10.7c0.3,0.2,0.7,0.3,1.1,0.3 c0.7,0,1.3-0.3,1.7-0.9c0.6-0.9,0.3-2.2-0.6-2.8L396.4,165.5z" />
	<path fill="#808080" d="M409.1,115.9c0,0,0.1,0,0.1,0l19.7-1c1.1-0.1,2-1,1.9-2.1s-1-2-2.1-1.9l-19.7,1c-1.1,0.1-2,1-1.9,2.1 C407.1,115.1,408,115.9,409.1,115.9z" />
	<path fill="#808080" d="M388.9,64.7c0.4,0,0.9-0.1,1.3-0.5l15.3-12.4c0.9-0.7,1-2,0.3-2.8c-0.7-0.9-2-1-2.8-0.3l-15.3,12.4 c-0.9,0.7-1,2-0.3,2.8C387.7,64.5,388.3,64.7,388.9,64.7z" />
	<path fill="#808080" d="M342,35.1c0.2,0,0.4,0.1,0.5,0.1c0.9,0,1.7-0.6,1.9-1.5l5.1-19c0.3-1.1-0.4-2.2-1.4-2.5 c-1.1-0.3-2.2,0.4-2.5,1.4l-5.1,19C340.3,33.7,340.9,34.8,342,35.1z" />
	<path fill="#808080" d="M667.6,393.1c-18.9-51.2-76-161.9-78-165.8c-3.1-8-9.1-14.3-16.9-17.7c-7.8-3.5-16.6-3.7-24.6-0.6 c-8,3.1-14.4,9.1-17.9,16.9c-1.2,2.8-2.1,5.6-2.5,8.6l-5.1-13.2c-6.4-16.6-25-24.9-41.5-18.5c-11.3,4.3-18.7,14.4-20.3,25.6 l-5.1-13.2c-6.4-16.6-25-24.9-41.5-18.5c-8,3.1-14.4,9.1-17.9,16.9c-1.2,2.8-2.1,5.6-2.5,8.6l-27.5-71.7c10.1-15,12.2-34.1,5.7-51 c-5.3-13.9-15.7-24.8-29.3-30.9c-13.6-6-28.7-6.4-42.6-1.1c-13.9,5.3-24.8,15.7-30.9,29.3c-6,13.6-6.4,28.7-1.1,42.6 c6.4,16.6,20.5,29.3,37.7,33.8c0.1,0,0.2,0,0.3,0l52,135.5c-6.3-5.4-13.5-9.1-21.2-10.7c-10.3-2.1-20.6-0.3-28.2,5.2 c-13,9.3-13.2,20.6-0.5,41.6c2.8,4.7,5.7,9.9,8.7,15.6c0,0.3,0.1,0.6,0.3,0.9c0.1,0.2,0.3,0.4,0.5,0.6c8.6,16.7,17.7,37,26.6,56.7 c12.7,28.3,24.7,55,34.7,70.4c0.4,0.6,1,0.9,1.7,0.9c0.4,0,0.8-0.1,1.1-0.3c0.9-0.6,1.2-1.9,0.6-2.8c-9.8-15.2-21.8-41.8-34.4-69.9 c-8.8-19.4-17.7-39.3-26.2-56l26.3-15.3c0.9-0.5,1.3-1.7,0.8-2.6l-7.8-15.6c-2.7-5.3-7.3-9.2-13-11c-5.7-1.7-11.7-1-16.9,2 c-3,1.7-5.6,4.3-7.5,7.3c-2.6-9.6,0.7-14.7,7.3-19.4c14.4-10.3,37.1-5,50.7,11.8l27.1,70.7c0.4,1,1.6,1.6,2.6,1.2 c1-0.4,1.6-1.6,1.2-2.6l-89.3-232.6c-2.7-7-2.5-14.7,0.6-21.5c3.1-6.9,8.6-12.1,15.6-14.8c14.5-5.6,30.8,1.7,36.3,16.2l39.7,103.3 c0.4,1,1.6,1.6,2.6,1.2c1-0.4,1.6-1.6,1.2-2.6c-2.7-7-2.5-14.7,0.6-21.5s8.6-12.1,15.6-14.8c14.5-5.6,30.8,1.7,36.3,16.2l10.7,27.8 c0.4,1,1.6,1.6,2.6,1.2c1-0.4,1.6-1.6,1.2-2.6c-5.6-14.5,1.7-30.8,16.2-36.3c14.5-5.6,30.8,1.7,36.3,16.2l10.7,27.8 c0.4,1,1.6,1.6,2.6,1.2c1-0.4,1.6-1.6,1.2-2.6c-2.7-7-2.5-14.7,0.6-21.5c3.1-6.9,8.6-12.1,15.6-14.8c7-2.7,14.7-2.5,21.5,0.6 c6.9,3.1,12.1,8.6,14.8,15.6c0,0.1,0.1,0.1,0.1,0.2c0.6,1.1,58.8,113.8,77.8,165.5c0.3,0.8,1.1,1.3,1.9,1.3c0.2,0,0.5,0,0.7-0.1 C667.5,395.3,668,394.1,667.6,393.1z M313.5,322.1c4.2-2.4,9-3,13.7-1.6c4.6,1.4,8.4,4.5,10.5,8.9l6.9,13.9l-24.5,14.2 c-2.8-5.4-5.6-10.3-8.2-14.7c-2.6-4.4-4.6-8.2-6-11.5C307.3,327.4,310.1,324,313.5,322.1z M272.1,137.8c-4.9-12.9-4.6-26.9,1-39.5 c5.6-12.6,15.8-22.2,28.6-27.2c12.9-4.9,26.9-4.6,39.5,1c12.6,5.6,22.2,15.8,27.2,28.6c5.7,14.7,4.2,31.3-3.8,44.8l-3.1-8.1 c4.8-11,5.1-23.2,0.8-34.4c-8.9-23.2-35-34.8-58.3-25.9c-11.2,4.3-20.1,12.8-25,23.8c-4.9,11-5.2,23.3-0.9,34.5 c4.2,10.9,12.3,19.6,22.8,24.6c0.1,0.1,0.2,0.1,0.3,0.1l3.2,8.2C289.7,163.7,277.7,152.4,272.1,137.8z M318.3,114.8 c-8,3.1-14.4,9.1-17.9,16.9c-3.2,7.3-3.7,15.3-1.3,22.8c-7.9-4.7-14-11.9-17.3-20.6c-3.9-10.2-3.6-21.4,0.8-31.4 c4.5-10,12.6-17.7,22.8-21.6c21.1-8.1,44.9,2.5,53,23.6c3.4,8.9,3.6,18.4,0.7,27.3C352.5,116.3,334.4,108.7,318.3,114.8z" />
	<path fill="#808080" d="M339.4,126.2c-5.4-2.6-11.4-2.9-17-0.7c-5.6,2.1-9.9,6.4-12.1,11.9c-2.2,5.5-2.1,11.6,0.4,17l7.3,15.8 c0.3,0.7,1.1,1.2,1.8,1.2c0.2,0,0.5,0,0.7-0.1l33.9-13c1-0.4,1.5-1.5,1.2-2.5l-5.2-16.6C348.7,133.4,344.8,128.9,339.4,126.2z M320.8,166.8l-6.5-14.1c-2-4.4-2.1-9.3-0.3-13.8s5.3-7.9,9.8-9.6c2-0.8,4.1-1.2,6.2-1.2c2.6,0,5.1,0.6,7.5,1.8 c4.4,2.1,7.5,5.8,9,10.4l4.6,14.8L320.8,166.8z" />
</svg>
