<svg xmlns="http://www.w3.org/2000/svg" viewBox="0 0 34 34">
	<circle fill="none" cx="17px" cy="17px" r="17px" />
	<circle fill="#333333" cx="19.3125038" cy="14.680131" r="1.2782588"/>
	<path fill="#333333" d="M24.8740234,14.9801025l-0.8134766-3.6254883c-0.2216797-0.7958984-0.796875-1.3422852-1.4814453-1.4506836 L18.6074219,9.022583c-0.1318359-0.0288086-0.2626953-0.0292969-0.390625-0.0058594 c-0.5415039,0.0195313-1.0546875,0.2392578-1.4414063,0.6245117l-7.6337891,7.6230469 c-0.4072266,0.4072266-0.6318359,0.9487305-0.6313477,1.5244141c0.0004883,0.5751953,0.2246094,1.1162109,0.6318359,1.5224609 l4.5444336,4.5390625C14.0531006,25.2155151,14.5206909,25.4121094,15,25.4589844v-2.1242676l-4.4448242-4.4395752 c-0.0371094-0.0371094-0.0449219-0.0791016-0.0449219-0.1074219c0-0.0292969,0.0078125-0.0712891,0.0449219-0.1083984 L18.1875,11.057251c0.0332031-0.0332031,0.0742188-0.0419922,0.1083984-0.0419922 c0.0068359,0,0.0136719,0.0004883,0.0195313,0.0009766c0.0214844,0.0024414,0.0429688,0.003418,0.0644531,0.0043945 l3.7441406,0.8295898l0.8144531,3.6362305c0.0117188,0.0541992,0.0283203,0.1069336,0.0498047,0.1586914 c0.0175781,0.043457,0.0195313,0.1132813-0.0332031,0.1660156c0,0,0,0.0004883-0.0009766,0.0004883L21,17.7634888V19h1.5922241 l1.7749634-1.7728271C24.9599609,16.6358643,25.1542969,15.7633057,24.8740234,14.9801025z"/>
	<polygon fill="#424242" points="22,21 19.968689,21 19.968689,19 17.9998779,19 17.9998779,21 16,21 16,23 17.9998779,23 17.9998779,25 19.968689,25 19.968689,23 22,23"/>
</svg>
