<svg xmlns="http://www.w3.org/2000/svg" viewBox="0 0 34 34">
	<path fill="#333333" d="M23.3,22.8c0,0.6-0.6,1.2-1.2,1.2H11.7c-0.6,0-0.9-0.6-0.9-1.2v-8.1H9.2v8.1c0,1.6,1.1,2.8,2.5,2.8H22 c1.5,0,2.8-1.3,2.8-2.8v-8.1h-1.6V22.8z M24.8,11.5h-3.1v-0.6c0-1.5-1.1-2.5-2.7-2.5h-3.9c-1.6,0-2.7,1-2.7,2.5v0.6H9.2 c-0.4,0-0.8,0.3-0.8,0.8c0,0.4,0.3,0.8,0.8,0.8h15.6c0.4,0,0.8-0.3,0.8-0.8C25.6,11.9,25.2,11.5,24.8,11.5z M20.1,11.5h-6.2v-0.6 c0-0.9,1-0.9,1.2-0.9H19c0.4,0,1.1,0.1,1.1,0.9V11.5z M15.5,20.9V17c0-0.4-0.3-0.8-0.8-0.8s-0.8,0.3-0.8,0.8v3.9 c0,0.4,0.3,0.8,0.8,0.8S15.5,21.3,15.5,20.9z M20.1,20.9V17c0-0.4-0.3-0.8-0.8-0.8c-0.4,0-0.8,0.3-0.8,0.8v3.9 c0,0.4,0.3,0.8,0.8,0.8C19.8,21.7,20.1,21.3,20.1,20.9z"/>
</svg>
