<svg xmlns="http://www.w3.org/2000/svg" viewBox="0 0 34 34">
	<path fill="#333333" d="M17,10.8c0.4,0,0.8-0.3,0.8-0.8S17.4,9.2,17,9.2h-2.3c-0.4,0-0.8,0.3-0.8,0.8s0.3,0.8,0.8,0.8h0.4v12.5h-0.4 c-0.4,0-0.8,0.3-0.8,0.8c0,0.4,0.3,0.8,0.8,0.8H17c0.4,0,0.8-0.3,0.8-0.8c0-0.4-0.3-0.8-0.8-0.8h-0.4V10.8H17z M12.3,14.3 c0.4,0,0.8-0.3,0.8-0.8s-0.3-0.8-0.8-0.8H9.6c-0.4,0-0.8,0.3-0.8,0.8v7c0,0.4,0.3,0.8,0.8,0.8h2.7c0.4,0,0.8-0.3,0.8-0.8 c0-0.4-0.3-0.8-0.8-0.8h-1.9v-5.4H12.3z M24.4,12.7h-5.1c-0.4,0-0.8,0.3-0.8,0.8s0.3,0.8,0.8,0.8h4.3v5.4h-4.3 c-0.4,0-0.8,0.3-0.8,0.8c0,0.4,0.3,0.8,0.8,0.8h5.1c0.4,0,0.8-0.3,0.8-0.8v-7C25.2,13.1,24.8,12.7,24.4,12.7z"/>
</svg>
