<svg xmlns="http://www.w3.org/2000/svg" viewBox="0 0 34 34">
	<circle fill="none" cx="17px" cy="17px" r="17px" />
	<circle fill="#333333" cx="19.3125038" cy="14.680131" r="1.2782588"/>
	<path fill="#333333" d="M15.2109375,25.4791374c-0.5517578,0-1.1040039-0.2099609-1.5244141-0.6289063l-4.5444336-4.5390625 c-0.4072266-0.40625-0.6313477-0.9472656-0.6318359-1.5224609c-0.0004883-0.5756836,0.2241211-1.1171875,0.6313477-1.5244141 l7.6337891-7.6230469c0.3867188-0.3852539,0.8999023-0.6049805,1.4414063-0.6245117 c0.1279297-0.0234375,0.2587891-0.0229492,0.390625,0.0058594l3.9716797,0.8813477 c0.6845703,0.1083984,1.2597656,0.6547852,1.4814453,1.4506836l0.8134766,3.6254883 c0.2802734,0.7832031,0.0859375,1.6557617-0.5068359,2.2470703l-7.6323242,7.6230469 C16.3149414,25.2691765,15.7626953,25.4791374,15.2109375,25.4791374z M18.2958984,11.0152702 c-0.0341797,0-0.0751953,0.0087891-0.1083984,0.0419922l-7.6323242,7.6220703 c-0.0371094,0.0371094-0.0449219,0.0791016-0.0449219,0.1083984c0,0.0283203,0.0078125,0.0703125,0.0449219,0.1074219 l4.5444336,4.5390625c0.0610352,0.0625,0.1601563,0.0615234,0.222168,0.0009766l7.6323242-7.6235352 c0.0009766,0,0.0009766-0.0004883,0.0009766-0.0004883c0.0527344-0.0527344,0.0507813-0.1225586,0.0332031-0.1660156 c-0.0214844-0.0517578-0.0380859-0.1044922-0.0498047-0.1586914l-0.8144531-3.6362305l-3.7441406-0.8295898 c-0.0214844-0.0009766-0.0429688-0.0019531-0.0644531-0.0043945 C18.3095703,11.0157585,18.3027344,11.0152702,18.2958984,11.0152702z M22.1728516,11.8609734 c0.0097656,0.0029297,0.0205078,0.0053711,0.0332031,0.0073242L22.1728516,11.8609734z" />
</svg>
