<svg xmlns="http://www.w3.org/2000/svg" viewBox="0 0 34 34">
	<circle fill="none" cx="17px" cy="17px" r="17px" />
	<path fill="#bf0058" d="M18.376 20.472l1.338-1.338c.38-.38.38-.996 0-1.377-.38-.38-.998-.38-1.377 0L17 19.095l-1.338-1.338c-.38-.38-.994-.38-1.376 0-.38.38-.38.997 0 1.377l1.337 1.338-1.337 1.338c-.38.38-.38.997 0 1.378.19.19.44.286.69.286.25 0 .497-.096.686-.286L17 21.85l1.337 1.338c.19.19.438.286.687.286.25 0 .5-.096.69-.286.38-.38.38-.998 0-1.378l-1.338-1.338z" />
	<path fill="#333333" d="M9.172 23.56c-.272 0-.548-.107-.75-.32C7.506 22.276 7 21.02 7 19.7c0-2.55 1.87-4.67 4.32-5.076.65-2.44 2.95-4.186 5.678-4.186 2.73 0 5.03 1.75 5.68 4.19C25.133 15.04 27 17.157 27 19.7c0 1.32-.505 2.576-1.422 3.538-.394.412-1.05.43-1.464.04-.415-.392-.43-1.044-.04-1.456.553-.578.857-1.332.857-2.122 0-1.703-1.39-3.09-3.103-3.09h-.937l-.115-.927c-.182-1.817-1.804-3.19-3.776-3.19-1.972 0-3.594 1.372-3.776 3.19l-.094.928h-.933c-1.737 0-3.13 1.387-3.13 3.09 0 .788.305 1.542.856 2.12.392.412.376 1.065-.037 1.456-.202.188-.458.28-.714.28z" />
</svg>
