<svg xmlns="http://www.w3.org/2000/svg" viewBox="0 0 34 34">
	<circle fill="none" cx="17px" cy="17px" r="17px" />
	<path fill="#333333" d="M22.678 14.65c-.648-2.416-2.95-4.148-5.68-4.148-2.728 0-5.028 1.73-5.68 4.146-2.447.4-4.32 2.503-4.32 5.027 0 1.307.506 2.553 1.424 3.505.2.21.477.318.75.318.255 0 .51-.092.713-.28.414-.388.43-1.033.038-1.442-.55-.57-.855-1.318-.855-2.1 0-1.687 1.392-3.058 3.13-3.058h.93l.096-.92c.18-1.8 1.803-3.158 3.774-3.158 1.972 0 3.594 1.358 3.776 3.158l.115.92h.936c1.713 0 3.104 1.37 3.104 3.057 0 .784-.304 1.53-.856 2.1-.39.41-.375 1.056.04 1.444.414.384 1.07.368 1.463-.04.918-.953 1.424-2.198 1.424-3.505 0-2.518-1.867-4.615-4.322-5.024z" />
</svg>
