<svg xmlns="http://www.w3.org/2000/svg" viewBox="0 0 34 34">
	<circle fill="none" cx="17px" cy="17px" r="17px" />
	<path fill="#ace001" d="M20.722 18.94c-.38-.39-.99-.39-1.367 0l-3.184 3.3-1.526-1.582c-.377-.392-.99-.392-1.366 0-.378.39-.378 1.024 0 1.415l2.21 2.29c.187.196.436.293.68.293.25 0 .497-.097.686-.293l3.867-4.006c.38-.39.38-1.025.002-1.416z" />
	<path fill="#333333" d="M9.175 22.79c-.276 0-.547-.11-.752-.32C7.506 21.506 7 20.25 7 18.93c0-2.55 1.873-4.672 4.323-5.077.647-2.44 2.948-4.186 5.677-4.186 2.73 0 5.032 1.75 5.68 4.19 2.457.41 4.32 2.53 4.32 5.072 0 1.32-.506 2.576-1.424 3.538-.392.413-1.047.43-1.462.04-.416-.392-.43-1.043-.04-1.455.552-.578.856-1.33.856-2.123 0-1.703-1.393-3.087-3.103-3.087h-.937l-.117-.928c-.18-1.818-1.803-3.188-3.774-3.188-1.97 0-3.595 1.37-3.777 3.188l-.09.928h-.938c-1.735 0-3.126 1.384-3.126 3.087 0 .79.3 1.544.853 2.122.395.412.377 1.064-.038 1.454-.2.19-.455.283-.71.283z"/>
</svg>
