<svg xmlns="http://www.w3.org/2000/svg" width="290" height="290">
	<path fill="#808080" d="M145.5,99.3c-3.1,0-6,1.2-8.1,3.5s-3.2,5.2-3,8.3l0.6,9c0,0.5,0.5,0.9,1,0.9h18.9c0.5,0,1-0.4,1-0.9l0.6-9 c0.2-3.1-0.9-6-3-8.3C151.4,100.5,148.5,99.3,145.5,99.3z M154.5,110.9L154,119h-17l-0.5-8.1c-0.2-2.5,0.7-4.9,2.4-6.8 c1.7-1.8,4.1-2.9,6.6-2.9s4.9,1,6.6,2.9S154.7,108.4,154.5,110.9z" />
	<path fill="#808080" d="M145.1,0.3c-80,0-145,65-145,145s65,145,145,145s145-65,145-145S225.1,0.3,145.1,0.3z M2.1,145.3 c0-78.9,64.1-143,143-143s143,64.1,143,143c0,32.9-11.1,63.2-29.9,87.3c-1-19.2-2.2-34.2-2.2-34.3c0-9.2-7.5-16.7-16.7-16.7 c-6.3,0-11.8,3.5-14.7,8.8v-7.5c0-9.2-7.5-16.7-16.7-16.7c-6.3,0-11.8,3.5-14.7,8.8v-7.5c0-9.2-7.5-16.7-16.7-16.7 c-6.3,0-11.8,3.5-14.7,8.8v-47.8c7.2-5,11.7-13.1,11.9-21.9c0.4-15.2-11.6-27.9-26.8-28.3c-15.2-0.5-27.9,11.6-28.3,26.8 c-0.2,8.4,3.3,16.3,9.7,21.8c0.1,0,0.1,0.1,0.2,0.1v84.8c-4.8-9.2-14.2-14.3-22.9-12c-8,2.1-10.2,7.5-7.9,20 c0.5,2.8,0.9,5.9,1.3,9.2c0,0.1-0.1,0.3,0,0.5c0,0.1,0.1,0.3,0.1,0.4c1.1,9.7,1.7,21.2,2.4,32.5c0.8,14.2,1.6,27.6,3.1,37 C45.5,265,2.1,210.1,2.1,145.3z M162.1,109.3c-0.1-1.3-0.3-2.6-0.6-3.8c0.1,0,0.2-0.1,0.3-0.2c4.3-4.1,6.8-9.6,7-15.6 c0.4-12.3-9.4-22.6-21.7-23c-12.3-0.4-22.6,9.4-23,21.7c-0.2,5.8,1.9,11.3,5.8,15.6c0,0,0,0,0,0c-0.4,1.2-0.8,2.4-0.9,3.6 c-5.3-5-8.3-12-8.1-19.4c0.4-14.1,12.2-25.2,26.3-24.8c14.1,0.4,25.2,12.2,24.8,26.3C171.8,97.5,168.1,104.6,162.1,109.3z M130.8,102c-3.2-3.8-4.8-8.6-4.7-13.5c0.3-11.2,9.7-20.1,20.9-19.8c5.4,0.2,10.5,2.4,14.2,6.4c3.7,4,5.7,9.1,5.5,14.6 c-0.1,5.3-2.3,10.2-6,13.8c-2.5-6-8.5-10.2-15.3-10.2C139.2,93.3,133.7,96.8,130.8,102z M99.9,202.6c-0.5-2.6-0.7-4.8-0.8-6.7 c1.4-1.6,3.4-2.7,5.4-3c2.5-0.4,5,0.2,7,1.8s3.2,3.8,3.5,6.3l0.8,8.1l-14.6,2.3C100.8,208.2,100.3,205.3,99.9,202.6z M145.1,288.3 c-13.3,0-26.1-1.8-38.3-5.2c-1.6-9.3-2.4-23.1-3.2-37.7c-0.6-11.1-1.3-22.4-2.3-32.1l15.6-2.5c0.5-0.1,0.9-0.6,0.8-1.1l-0.9-9 c-0.3-3.1-1.8-5.8-4.2-7.7c-2.4-1.9-5.5-2.7-8.5-2.2c-1.8,0.3-3.6,1.1-5.1,2.2c0.5-5.2,3.1-7.1,7.2-8.2c8.9-2.3,19,4.5,22.4,15.2 v39.3c0,0.6,0.4,1,1,1s1-0.4,1-1V110c0-8.1,6.6-14.7,14.7-14.7s14.7,6.6,14.7,14.7v57.5c0,0.6,0.4,1,1,1s1-0.4,1-1 c0-8.1,6.6-14.7,14.7-14.7s14.7,6.6,14.7,14.7v15.4c0,0.6,0.4,1,1,1s1-0.4,1-1c0-8.1,6.6-14.7,14.7-14.7c8.1,0,14.7,6.6,14.7,14.7 v15.4c0,0.6,0.4,1,1,1s1-0.4,1-1c0-8.1,6.6-14.7,14.7-14.7s14.7,6.6,14.7,14.7c0,0.2,1.3,16.3,2.3,36.6c0,0,0,0,0,0 C230.2,267.5,190,288.3,145.1,288.3z" />
	<path fill="#808080" d="M147.3,46C147.3,46,147.3,46,147.3,46c0.6,0,1-0.4,1-1l0.3-9.8c0-0.6-0.4-1-1-1c-0.6,0-1,0.4-1,1l-0.3,9.8 C146.3,45.5,146.8,45.9,147.3,46z" />
	<path fill="#808080" d="M120.4,53.4c0.2,0.3,0.5,0.4,0.8,0.4c0.2,0,0.4-0.1,0.6-0.2c0.5-0.3,0.6-0.9,0.3-1.4l-5.5-8.1 c-0.3-0.5-0.9-0.6-1.4-0.3c-0.5,0.3-0.6,0.9-0.3,1.4L120.4,53.4z" />
	<path fill="#808080" d="M95.3,72.3l9.2,3.3c0.1,0,0.2,0.1,0.3,0.1c0.4,0,0.8-0.3,0.9-0.7c0.2-0.5-0.1-1.1-0.6-1.3L96,70.4 c-0.5-0.2-1.1,0.1-1.3,0.6C94.5,71.5,94.8,72.1,95.3,72.3z" />
	<path fill="#808080" d="M105.2,101.6c-0.2-0.5-0.7-0.8-1.2-0.7l-9.4,2.8c-0.5,0.2-0.8,0.7-0.7,1.2c0.1,0.4,0.5,0.7,1,0.7 c0.1,0,0.2,0,0.3,0l9.4-2.8C105.1,102.7,105.4,102.1,105.2,101.6z" />
	<path fill="#808080" d="M113.9,133c0.3,0,0.6-0.1,0.8-0.4l6-7.7c0.3-0.4,0.3-1.1-0.2-1.4c-0.4-0.3-1.1-0.3-1.4,0.2l-6,7.7 c-0.3,0.4-0.3,1.1,0.2,1.4C113.5,132.9,113.7,133,113.9,133z" />
	<path fill="#808080" d="M172.5,124.7c-0.3-0.5-0.9-0.6-1.4-0.3c-0.5,0.3-0.6,0.9-0.3,1.4l5.5,8.1c0.2,0.3,0.5,0.4,0.8,0.4 c0.2,0,0.4-0.1,0.6-0.2c0.5-0.3,0.6-0.9,0.3-1.4L172.5,124.7z" />
	<path fill="#808080" d="M187.8,104.5l9.2,3.3c0.1,0,0.2,0.1,0.3,0.1c0.4,0,0.8-0.3,0.9-0.7c0.2-0.5-0.1-1.1-0.6-1.3l-9.2-3.3 c-0.5-0.2-1.1,0.1-1.3,0.6C187,103.7,187.3,104.3,187.8,104.5z" />
	<path fill="#808080" d="M188.7,77.3c0.1,0,0.2,0,0.3,0l9.4-2.8c0.5-0.2,0.8-0.7,0.7-1.2c-0.2-0.5-0.7-0.8-1.2-0.7l-9.4,2.8 c-0.5,0.2-0.8,0.7-0.7,1.2C187.9,77,188.3,77.3,188.7,77.3z" />
	<path fill="#808080" d="M173.1,54.9c0.3,0,0.6-0.1,0.8-0.4l6-7.7c0.3-0.4,0.3-1.1-0.2-1.4c-0.4-0.3-1.1-0.3-1.4,0.2l-6,7.7 c-0.3,0.4-0.3,1.1,0.2,1.4C172.7,54.8,172.9,54.9,173.1,54.9z" />
</svg>
