<svg xmlns="http://www.w3.org/2000/svg" width="290" height="290">
	<path fill="#808080" d="M145,290C65,290,0,224.9,0,145S65.1,0,145,0s145,65.1,145,145S224.9,290,145,290z M145,2 C66.2,2,2,66.1,2,145c0,78.9,64.1,143,143,143s143-64.1,143-143S223.9,2,145,2z" />
	<path fill="#808080" d="M145,147c-3.9,0-7-3.1-7-7V98c0-3.9,3.1-7,7-7c3.9,0,7,3.1,7,7v42C152,143.9,148.9,147,145,147z M145,93 c-2.8,0-5,2.2-5,5v42c0,2.8,2.2,5,5,5s5-2.2,5-5V98C150,95.2,147.8,93,145,93z" />
	<path fill="#808080" d="M145,199c-28.1,0-51-22.9-51-51c0-13.9,5.5-26.9,15.5-36.6c2.1-2.1,4.6-4.2,5.6-4.9 c0.1-0.1,0.2-0.2,0.3-0.2l0.6,0.7l-0.5-0.8c0,0,0,0,0,0l0,0c0,0,0,0,0,0l0.8-0.5l0,0c1-0.5,2.1-0.7,3.2-0.7 c4.1,0,7.5,3.4,7.5,7.5c0,1.6-0.5,3.1-1.5,4.4c-0.1,0.1-1.1,1.3-4,3.7c-8,6.9-12.6,16.8-12.6,27.3c0,19.9,16.1,36,36,36 c19.9,0,36-16.1,36-36c0-10.5-4.6-20.5-12.6-27.3c-2.9-2.5-3.9-3.6-3.9-3.7c-1-1.4-1.5-2.9-1.5-4.5c0-4.1,3.4-7.5,7.5-7.5 c1.5,0,2.9,0.4,4.1,1.2c0,0,2.6,2,4.7,4.1C189.9,120,196,133.7,196,148C196,176.1,173.1,199,145,199z M116.6,107.8 c-0.1,0.1-0.2,0.2-0.3,0.2c-0.8,0.7-3.4,2.7-5.4,4.8C101.3,122.2,96,134.6,96,148c0,27,22,49,49,49c27,0,49-22,49-49 c0-13.7-5.8-26.9-16-36.2c-2-1.9-4.5-3.9-4.5-3.9c-0.8-0.6-1.9-0.9-3-0.9c-3,0-5.5,2.5-5.5,5.5c0,1.2,0.4,2.3,1.1,3.3l0,0 c0,0,0.9,1.1,3.6,3.4c8.5,7.2,13.3,17.8,13.3,28.9c0,21-17,38-38,38s-38-17-38-38c0-11.1,4.8-21.6,13.3-28.8 c2.8-2.4,3.7-3.5,3.7-3.5c0.7-0.9,1-2,1-3.2c0-3-2.5-5.5-5.5-5.5C118.5,107,117.5,107.3,116.6,107.8z" />
</svg>
