<svg xmlns="http://www.w3.org/2000/svg" width="290" height="290">
	<path fill="#808080" d="M145,0C65,0,0,65,0,145s65,145,145,145s145-65,145-145S225,0,145,0z M136.1,287.7v-56h17.8v56 c-2.9,0.2-5.9,0.3-8.9,0.3S139,287.9,136.1,287.7z M130.2,186h29.5c-0.8,1.5-1.2,3.6-1.2,5.8v37.9h-3.6h-19.8h-3.6v-37.9 C131.5,189.7,131,187.5,130.2,186z M179.2,107.6h-68.4V63.8h68.4V107.6z M109.8,109.6c9.9,0,60.5,0,70.4,0c0.9,0,6.3,0,6.3,0 c1.4,0,2.5,1.1,2.5,2.5v69.3c0,1.4-1.1,2.5-2.5,2.5h-83c-1.4,0-2.5-1.1-2.5-2.5v-69.3c0-1.4,1.1-2.5,2.5-2.5 C103.5,109.6,108.9,109.6,109.8,109.6z M155.9,287.6v-55.9h3.6c0.5,0,1-0.5,1-1v-38.9c0-3.2,0.9-5.8,2.1-5.8c0.2,0,0.3,0,0.5-0.1 h23.4c2.5,0,4.5-2,4.5-4.5v-69.3c0-2.5-2-4.5-4.5-4.5h-5.3V62.8c0-0.6-0.4-1-1-1h-70.4c-0.6,0-1,0.4-1,1v44.8h-5.3 c-2.5,0-4.5,2-4.5,4.5v69.3c0,2.5,2,4.5,4.5,4.5h23.4c0.1,0.1,0.3,0.1,0.5,0.1c1,0,2.1,2.5,2.1,5.8v38.9c0,0.6,0.4,1,1,1h3.6v55.9 C60.3,282,2,220.2,2,145C2,66.1,66.1,2,145,2s143,64.1,143,143C288,220.2,229.7,282,155.9,287.6z" />
	<path fill="#808080" d="M156,96.3h14c0.5,0,1-0.4,1-1v-9.1c0-0.6-0.4-1-1-1h-14c-0.6,0-1,0.4-1,1v9.1C155,95.9,155.4,96.3,156,96.3z M156.9,87.2h12v7.1h-12V87.2z" />
	<path fill="#808080" d="M120.1,96.3h14c0.5,0,1-0.4,1-1v-9.1c0-0.6-0.4-1-1-1h-14c-0.6,0-1,0.4-1,1v9.1 C119.1,95.9,119.5,96.3,120.1,96.3z M121,87.2h12v7.1h-12V87.2z" />
	<path fill="#808080" d="M138.1,145.6v3.8v0.1c0.5,2,2.5,3.1,3.8,4.4c0.7,0.7,1.2,1.5,1.7,2.3c0.2,0.2,0.4,0.7,0.5,1v1.9 c-1.7,0.3-3,1.8-3,3.6c0,2,1.6,3.7,3.7,3.7c2,0,3.7-1.6,3.7-3.7c0-1.8-1.3-3.3-3-3.6V152c0-0.7,0.6-1.7,1-2.3 c0.8-1.1,1.9-1.9,2.9-2.7c1.1-0.9,2.4-2,2.5-3.5c0-0.3-0.1-3.3,0-3.3h1.7v-5h-5v5h1.9v3.5c-0.3,0.4-1.2,1.6-1.9,2.2 c-0.5,0.4-1.5,1.1-2.5,2c-0.3,0.2-0.5,0.5-0.7,0.8v-16.6h1.5l-1.1-2.5l-1.1-2.5l-0.9,2.5l-1.1,2.5h1.5v22.2c-0.5-0.5-1-1.1-1.6-1.6 c-0.7-0.7-1.4-1.3-1.9-1.7c-0.6-0.5-0.9-1-1.1-1.4c-0.1-0.2-0.2-0.3-0.2-0.4v-3.6c1-0.3,1.7-1.2,1.7-2.3c0-1.3-1.1-2.4-2.4-2.4 s-2.4,1.1-2.4,2.4C136.3,144.4,137.1,145.4,138.1,145.6z" />
</svg>
