<svg xmlns="http://www.w3.org/2000/svg" viewBox="0 0 878 490">
	<path fill="#808080" d="M789,284.7c-1.1,0-2-0.9-2-2V178c0-22.7-18.4-41.1-41.1-41.1H132.1c-22.7,0-41.1,18.4-41.1,41.1v104.3 c0,1.1-0.9,2-2,2s-2-0.9-2-2V178c0-24.9,20.2-45.1,45.1-45.1h613.8c24.9,0,45.1,20.2,45.1,45.1v104.7 C791,283.8,790.1,284.7,789,284.7z" />
	<path fill="#808080" d="M745.4,318.3c-1.1,0-2-0.9-2-2V145.4c0-4.7-3.7-8.5-8.3-8.5H143c-4.6,0-8.3,3.8-8.3,8.5V315c0,1.1-0.9,2-2,2 c-1.1,0-2-0.9-2-2V145.4c0-6.9,5.5-12.5,12.3-12.5H735c6.8,0,12.3,5.6,12.3,12.5v170.9C747.4,317.4,746.5,318.3,745.4,318.3z" />
	<path fill="#808080" d="M439,285.1c-34.3,0-62.3-27.9-62.3-62.3s27.9-62.3,62.3-62.3s62.3,27.9,62.3,62.3S473.3,285.1,439,285.1z M439,164.6c-32.1,0-58.3,26.1-58.3,58.3c0,32.1,26.1,58.3,58.3,58.3c32.1,0,58.3-26.1,58.3-58.3 C497.3,190.7,471.1,164.6,439,164.6z" />
	<path fill="#808080" d="M439,247.6c-13.7,0-24.8-11.1-24.8-24.8c0-13.7,11.1-24.8,24.8-24.8c13.7,0,24.8,11.1,24.8,24.8 C463.8,236.5,452.7,247.6,439,247.6z M439,202c-11.5,0-20.8,9.3-20.8,20.8c0,11.5,9.3,20.8,20.8,20.8s20.8-9.3,20.8-20.8 C459.8,211.4,450.5,202,439,202z" />
	<path fill="#808080" d="M695.7,251.7h-163c-3.1,0-5.7-2.5-5.7-5.7v-47.7c0-3.1,2.5-5.7,5.7-5.7h163c3.1,0,5.7,2.5,5.7,5.7V246 C701.4,249.1,698.8,251.7,695.7,251.7z M532.7,196.7c-0.9,0-1.7,0.7-1.7,1.7V246c0,0.9,0.7,1.7,1.7,1.7h163c0.9,0,1.7-0.7,1.7-1.7 v-47.7c0-0.9-0.7-1.7-1.7-1.7H532.7z" />
	<rect fill="#808080" x="653.9" y="194.7" width="4" height="55" />
	<rect fill="#808080" x="612.5" y="194.7" width="4" height="55" />
	<rect fill="#808080" x="570" y="194.7" width="4" height="55" />
	<path fill="#808080" d="M343.9,251.7H180.6c-3,0-5.5-2.5-5.5-5.5v-48c0-3,2.5-5.5,5.5-5.5h163.3c3.1,0,5.6,2.5,5.6,5.6v48 C349.4,249.2,347,251.7,343.9,251.7z M180.6,196.7c-0.8,0-1.5,0.7-1.5,1.5v48c0,0.8,0.7,1.5,1.5,1.5h163.4c0.8,0,1.5-0.7,1.5-1.5 v-48c0-0.9-0.7-1.6-1.6-1.6H180.6z" />
	<rect fill="#808080" x="302" y="194.7" width="4" height="55" />
	<rect fill="#808080" x="260.5" y="194.7" width="4" height="55" />
	<rect fill="#808080" x="218.1" y="194.7" width="4" height="55" />
	<path fill="#808080" d="M213.1,308.1H204c-1.1,0-2-0.9-2-2s0.9-2,2-2h9.1c1.1,0,2,0.9,2,2S214.2,308.1,213.1,308.1z" />
	<path fill="#808080" d="M197.2,324.5c-1.1,0-2-0.9-2-2v-9.3c0-1.1,0.9-2,2-2c1.1,0,2,0.9,2,2v9.3 C199.2,323.6,198.3,324.5,197.2,324.5z" />
	<path fill="#808080" d="M683.1,324.5c-1.1,0-2-0.9-2-2v-9.3c0-1.1,0.9-2,2-2c1.1,0,2,0.9,2,2v9.3 C685.1,323.6,684.2,324.5,683.1,324.5z" />
	<path fill="#808080" d="M676.8,307.9h-9.2c-1.1,0-2-0.9-2-2s0.9-2,2-2h9.2c1.1,0,2,0.9,2,2S677.9,307.9,676.8,307.9z" />
	<path fill="#808080" d="M213.1,357.1c-1.1,0-2-0.9-2-2v-34.6h459.3v32c0,1.1-0.9,2-2,2c-1.1,0-2-0.9-2-2v-28H215.1v30.6 C215.1,356.2,214.2,357.1,213.1,357.1z" />
	<path fill="#808080" d="M449.8,224.8h-22.5c-1.1,0-2-0.9-2-2c0-1.1,0.9-2,2-2h22.5c1.1,0,2,0.9,2,2 C451.8,223.9,450.9,224.8,449.8,224.8z" />
	<path fill="#808080" d="M438.5,236.1c-1.1,0-2-0.9-2-2v-22.5c0-1.1,0.9-2,2-2c1.1,0,2,0.9,2,2v22.5 C440.5,235.2,439.6,236.1,438.5,236.1z" />
</svg>
