<svg xmlns="http://www.w3.org/2000/svg" viewBox="0 0 878 490">
	<path fill="#808080" d="M808,113.3l-7.6-29.6c-0.4-1.5-2-2.5-3.5-2.1L772.1,88l-0.4-1.7c-0.1-0.5-0.5-1-0.9-1.2 c-0.5-0.3-1-0.4-1.5-0.2l-122.4,31.4c-7-11.8-12-17.9-16-19.5c-17.4-7.1-104.9-11.6-134.5-3c-20.5,5.9-62,24.5-85.5,35.4h-0.1 l-1.2,0.6c-9.6,4.4-15.9,7.5-16.1,7.6c-0.6,0.3-1.1,0.6-1.7,0.9c-0.1,0.1-0.3,0.2-0.4,0.2c-0.5,0.3-1,0.6-1.4,0.9 c-0.1,0-0.1,0.1-0.2,0.1c-0.5,0.4-1.1,0.8-1.6,1.2l-0.1,0.1c-0.5,0.4-1,0.8-1.5,1.3c0,0,0,0-0.1,0.1c-2.1,1.9-3.8,4.1-5.2,6.5l0,0 l0,0c-4.9,8.2-5.6,18.6-1.1,27.8c0.4,0.8,2.1,4,4.7,7.4L322,200.5c-0.2,0.1-0.4,0.2-0.6,0.3l-19.4,5l1,4l-24.7,6.4l-4.2,8.5 l1.1,4.4l-4.9,1.3l0.4,1.4l-4,2.1l0.4,1.6l-12.4,3.2c0.5-2.2,0.7-4.5,0.7-6.9c0-14.5-9-26.3-20.1-26.3S215,217,215,231.5 s9,26.3,20.1,26.3c4.4,0,8.6-1.8,12.1-5.3c0.8-0.8,0.8-2.1,0-2.8c-0.8-0.8-2.1-0.8-2.8,0c-2.7,2.7-5.9,4.1-9.3,4.1 c-8.9,0-16.1-10-16.1-22.3s7.2-22.3,16.1-22.3s16.1,10,16.1,22.3c0,3.6-0.7,7.3-1.9,10.5c-0.4,1,0.1,2.2,1.2,2.6 c1,0.4,2.2-0.1,2.6-1.2c0.2-0.4,0.3-0.9,0.5-1.3l0.2,0.7l14.2-3.7l0.4,1.6l4.5-0.1l0.4,1.4l4.9-1.3l1.2,4.6l7.8,5.2l24.7-6.4l1,4 l19.4-5c0.1,0,0.2,0,0.3,0l83.1-21.8l-6.7,5.3c-12.1,10.6-13.3,29-2.7,41.1c5.1,5.8,12.2,9.4,20,9.9c0.7,0,1.3,0.1,2,0.1 c7,0,13.8-2.5,19.1-7.2l37.3-32.6c19.8,6.4,38.9,13,49.9,17.6c14.9,6.4,30.1,31.4,43.4,53.6c10.2,16.9,19.9,32.9,28.7,39.6 c9,6.8,31,19.5,52.2,31.8c16.4,9.5,31.8,18.4,41.3,24.6c1.8,1.2,3.4,2.3,4.6,3.2c0.4,0.3,0.8,0.4,1.2,0.4c0.6,0,1.2-0.3,1.6-0.8 c0.7-0.9,0.4-2.2-0.5-2.8c-1.3-0.9-2.9-2-4.8-3.3c-9.5-6.2-25-15.2-41.5-24.7c-21.2-12.2-43-24.9-51.8-31.6 c-8.2-6.2-17.7-21.9-27.7-38.5c-14.4-23.7-29.2-48.3-45.3-55.2c-11.2-4.8-31-11.6-51.2-18.1c0,0,0,0-0.1,0l-0.8-0.3 c-23.1-7.5-46.7-14.6-58.7-18.2l-0.2-0.1l0,0c-4.9-1.5-7.8-2.3-8-2.4c-13.3-3.8-21-17.8-17.1-31c3.8-13.3,17.8-21,31.1-17.1 c3.9,0.9,95,22.7,109.8,21.9c4.7-0.3,14.8-2.2,27.3-5c0.2,0.1,0.5,0.1,0.7,0.1s0.3,0,0.5-0.1l15.8-4c27.7-6.6,60.1-15.2,75.2-19.2 l6.6-1.7c4.8,11.7,31.5,76.4,45.1,94.2c16.2,21.1,58.2,57.6,90.6,84.5c0.9,0.7,2.1,0.6,2.8-0.3s0.6-2.1-0.3-2.8 c-32.3-26.7-74.1-63-90-83.8c-13-16.9-39.2-80-44.4-92.7l109.2-27.9c1.1-0.3,1.7-1.4,1.5-2.4l-0.5-1.9L806,117 c0.8-0.2,1.4-0.7,1.8-1.3C808.1,114.8,808.2,114,808,113.3z M385.2,149.6c1.8-2.8,4.1-5.1,6.8-7c0.1-0.1,0.2-0.1,0.3-0.2 c0.3-0.2,0.7-0.4,1-0.6c0.1-0.1,0.2-0.1,0.4-0.2c0.4-0.2,0.8-0.5,1.3-0.7c0,0,0,0,0.1,0l15.6-7.3l8,13.4l-11.3,7.8 c-3.5,2.4-7.8,3.3-12,2.4c-4.2-0.9-7.7-3.5-9.9-7.1l0,0C385.3,149.9,385.2,149.7,385.2,149.6z M271.4,236.6l-0.2-0.9l0.3-0.2 l0.3,1.1L271.4,236.6z M276,237.1l-0.1-0.3l-1-3.8l1-0.3l0,0l1,4.1L276,237.1z M287.7,246.2l-5-3.3l-0.8-3.2l0,0l-3.1-11.9l0,0 l-0.8-2.9l2.7-5.5l22.9-5.9l1.5,5.9l5.4,21L287.7,246.2z M315.6,243.2l-3.3-12.7l-5.7-22l0,0v-0.1l12.9-3.3l9,34.7L315.6,243.2z M444.6,267.3c-5,4.4-11.5,6.6-18.2,6.2s-12.8-3.5-17.2-8.5c-4.4-5-6.6-11.5-6.2-18.2s3.5-12.8,8.4-17.1l13.2-10.5l55.3,17.2 L444.6,267.3z M415.8,216.5c0.1,0,0.4,0.1,1.1,0.3l-83.4,21.8l-8.7-35l70.2-18.5C393.3,199,401.9,212.5,415.8,216.5z M395.9,180.4 c0,0.1,0,0.2-0.1,0.3l-6.8,1.8c-3.1-3.6-5.2-7.6-5.4-8.1c-3.3-6.8-3.3-14.3-0.6-20.8c2.8,3.8,6.8,6.4,11.5,7.4 c1.4,0.3,2.8,0.5,4.2,0.5c3.9,0,7.7-1.2,10.9-3.4l12.9-8.9c0.9-0.6,1.1-1.8,0.6-2.7l-8.8-14.7c23.7-11,63.2-28.6,83-34.3 c29.1-8.4,114.9-4,131.9,2.9c2.1,0.8,6.1,4.5,13.5,16.8l-121.6,31.2c-6.9-2.9-11.5-3.9-14.6-3.1c-3.2,0.8-16.5,6.5-40.7,17.3 l-11.8,3c-12.8-2.9-21.8-5.1-22.1-5.1C416.5,156.1,400.3,165,395.9,180.4z M514.3,150.2l-24.8,6.4c12.1-5.2,16.6-7,18-7.3 C508.4,149,510.3,148.9,514.3,150.2z M668,152c-0.2,0-0.4,0-0.6,0.1c-0.2,0-3.4,0.9-8.7,2.3l-74,18.9c-20.1,4.8-37.7,8.7-44.2,9 c-0.2,0-0.5,0-0.8,0c-10.1,0-47.9-8.1-75.9-14.4c1.1-0.5,2.2-1,3.3-1.5l300.8-77.2l8.6,33.3l0.4,1.6L668,152z M779.9,119.4 L773,91.9l23.8-6.1l7.1,27.4L779.9,119.4z" />
	<path fill="#808080" d="M107,227.6h-4.5v-19.4c0-1.1-0.9-2-2-2s-2,0.9-2,2v19.4H77.2v-19.4c0-1.1-0.9-2-2-2s-2,0.9-2,2v19.4h-1.3 c-1.1,0-2,0.9-2,2s0.9,2,2,2h1.3v23c0,1.1,0.9,2,2,2s2-0.9,2-2v-23h21.3v23c0,1.1,0.9,2,2,2s2-0.9,2-2v-23h4.5c1.1,0,2-0.9,2-2 S108.1,227.6,107,227.6z" />
	<path fill="#808080" d="M143.1,209.8c1.1,0,2-0.9,2-2s-0.9-2-2-2h-24.2c-1.1,0-2,0.9-2,2s0.9,2,2,2h1.3v20.8h-1.3c-1.1,0-2,0.9-2,2 s0.9,2,2,2h1.3v18.1h-1.3c-1.1,0-2,0.9-2,2s0.9,2,2,2h24.2c1.1,0,2-0.9,2-2s-0.9-2-2-2h-18.9v-18.1h9.9c1.1,0,2-0.9,2-2s-0.9-2-2-2 h-9.9v-20.8H143.1z" />
	<path fill="#808080" d="M179.3,252.6h-20.7v-44.3c0-1.1-0.9-2-2-2s-2,0.9-2,2v44.4c-0.9,0.2-1.5,1-1.5,1.9c0,1.1,0.9,2,2,2h24.2 c1.1,0,2-0.9,2-2S180.4,252.6,179.3,252.6z" />
	<path fill="#808080" d="M211.8,252.6h-20.7v-44.3c0-1.1-0.9-2-2-2s-2,0.9-2,2v44.4c-0.9,0.2-1.5,1-1.5,1.9c0,1.1,0.9,2,2,2h24.2 c1.1,0,2-0.9,2-2S212.9,252.6,211.8,252.6z" />
	<path fill="#808080" d="M433.3,171.4c-5.1-1.7-10.6-1.3-15.4,1.2c-4.8,2.6-8.2,6.8-9.6,12.1c-1.4,5.2-0.6,10.7,2.2,15.3 c2.9,4.6,7.4,7.7,12.7,8.8l15.4,3.1c0.1,0,0.3,0,0.4,0c0.9,0,1.7-0.6,1.9-1.5l8.5-31.5c0.3-1-0.3-2.1-1.3-2.4L433.3,171.4z M437.6,207.5l-13.5-2.7c-4.2-0.8-7.8-3.3-10-7c-2.3-3.7-2.9-7.9-1.8-12.1c1.1-4.1,3.8-7.5,7.6-9.6c2.3-1.2,4.7-1.8,7.2-1.8 c1.7,0,3.3,0.3,5,0.8l13,4.4L437.6,207.5z" />
	<path fill="#808080" d="M762.1,96.8l-112.3,28.5l5.8,22.6l112.3-28.5L762.1,96.8z M654.7,128.3l104.5-26.5l3.8,14.8L658.5,143 L654.7,128.3z" />
</svg>
