<svg xmlns="http://www.w3.org/2000/svg" viewBox="0 0 878 490">
	<path fill="#808080" d="M736.2,68.7h-0.3C722.3,29.5,685,1.4,641.3,1.4c-42.9,0-79.6,27.2-93.8,65.2H216c-2.4,0-4.5,0.8-6.3,2.1h-67.9 c-15.3,0-27.7,12.4-27.7,27.7v6.5v351.5v6.5c0,15.3,12.4,27.7,27.7,27.7h594.4c15.3,0,27.7-12.4,27.7-27.7v-6.5V102.9v-6.5 C763.9,81.1,751.5,68.7,736.2,68.7z M760.1,96.1c-1.3-0.8-2.8-1.3-4.4-1.3h-14.5c-0.5-7.7-1.9-15.2-4.1-22.3 C749.8,73,759.9,83.3,760.1,96.1z M117.9,102.9c0-2.4,2-4.3,4.4-4.3h83.9l1,31.8c0,5.8,4.7,10.5,10.5,10.5h8.6v269.7h414.2V201.8 c0.3,0,0.5,0,0.8,0c55.2,0,100.2-45,100.2-100.2c0-1,0-2,0-3h14.3c2.4,0,4.4,1.9,4.4,4.3v351.5c0,2.4-2,4.3-4.4,4.3H122.3 c-2.4,0-4.4-1.9-4.4-4.3V102.9z M737.7,101.6c0,6.5-0.7,12.9-1.9,19.1h-50.5v-8.4h-3.8v20.6h3.8v-8.4h49.7 c-10.3,42.1-48.4,73.5-93.6,73.5c-11.4,0-22.4-2-32.6-5.7h53.5c9.2,0,16.8-7.5,16.8-16.7l1.9-103.2c0-1.4-0.2-2.7-0.5-4h51.4 C735.6,78.7,737.7,89.9,737.7,101.6z M677.1,72.4l-1.9,103.2c0,7.1-5.8,13-13,13h-62.6c-32.3-15.6-54.7-48.7-54.7-86.9 c0-15.1,3.5-29.4,9.7-42.2h109.5C671.3,59.4,677.1,65.2,677.1,72.4z M549.2,140.9c9.6,22.4,27.1,40.7,49,51.2v0.3h0.6 c11.6,5.5,24.4,8.8,37.9,9.4v205H230.1V140.9h318.7H549.2z M641.3,5.2c40,0,74.4,24.5,89,59.4h-51.3c-2.8-5.3-8.4-8.9-14.8-8.9 H556.6C573,25.6,604.8,5.2,641.3,5.2z M216,70.4h330.1c-3.2,9.8-5,20.3-5,31.2c0,12.5,2.3,24.4,6.5,35.5H226.3h-8.6 c-3.7,0-6.7-3-6.7-6.8l-1.7-53.2C209.3,73.4,212.3,70.4,216,70.4z M141.8,72.5h64.8c-0.7,1.4-1.1,3-1.1,4.7l0.6,17.7h-83.8 c-1.6,0-3.1,0.5-4.4,1.3C118.1,83,128.7,72.5,141.8,72.5z M736.2,484.8H141.8c-13.1,0-23.7-10.5-23.9-23.6c1.3,0.8,2.8,1.3,4.4,1.3 h633.4c1.6,0,3.1-0.5,4.4-1.3C759.9,474.3,749.3,484.8,736.2,484.8z" />
	<path fill="#808080" d="M168.6,315.2c20.9,0,37.9-17,37.9-38s-17-38-37.9-38c-20.9,0-37.9,17-37.9,38S147.7,315.2,168.6,315.2z M168.6,243.1c18.8,0,34.1,15.3,34.1,34.2c0,18.8-15.3,34.2-34.1,34.2s-34.1-15.3-34.1-34.2C134.4,258.4,149.8,243.1,168.6,243.1z" />
	<path fill="#808080" d="M168.6,292.8c8.6,0,15.5-7,15.5-15.5c0-8.6-7-15.5-15.5-15.5c-8.6,0-15.5,7-15.5,15.5 C153.1,285.8,160,292.8,168.6,292.8z M168.6,265.5c6.5,0,11.7,5.3,11.7,11.7s-5.3,11.7-11.7,11.7c-6.5,0-11.7-5.3-11.7-11.7 S162.1,265.5,168.6,265.5z" />
	<path fill="#808080" d="M155.4,225.3H181c3.1,0,5.6-2.5,5.6-5.6v-94.6c0-3.1-2.5-5.6-5.6-5.6h-25.5c-3.1,0-5.6,2.5-5.6,5.6v94.6 C149.8,222.8,152.3,225.3,155.4,225.3z M181,221.5h-25.5c-1,0-1.8-0.8-1.8-1.8v-20.2h29.1v20.2C182.8,220.7,182,221.5,181,221.5z M182.8,174.1v21.6h-29.1v-21.6H182.8z M153.6,170.3v-21h29.1v21H153.6z M155.4,123.3H181c1,0,1.8,0.8,1.8,1.8v20.4h-29.1v-20.4 C153.6,124.1,154.4,123.3,155.4,123.3z" />
	<path fill="#808080" d="M181.1,330.1h-25.8c-3,0-5.5,2.5-5.5,5.5v94.9c0,3,2.4,5.4,5.4,5.4h25.9c3,0,5.4-2.4,5.4-5.4v-94.9 C186.6,332.6,184.1,330.1,181.1,330.1z M155.3,333.9h25.8c0.9,0,1.6,0.7,1.6,1.6v20.6h-29.1v-20.5 C153.6,334.7,154.4,333.9,155.3,333.9z M153.6,380.9v-21h29.1v21H153.6z M182.8,384.7v21.6h-29.1v-21.6H182.8z M181.1,432.1h-25.9 c-0.9,0-1.6-0.7-1.6-1.6v-20.4h29.1v20.4C182.8,431.4,182,432.1,181.1,432.1z" />
	<path fill="#808080" d="M400.5,83.7h62.9c2.1,0,3.8-1.7,3.8-3.8s-1.7-3.8-3.8-3.8h-62.9c-2.1,0-3.8,1.7-3.8,3.8S398.4,83.7,400.5,83.7 z" />
	<path fill="#808080" d="M218.4,407.2c-0.8,0-1.4,0.6-1.4,1.4v5.4c0,0.8,0.6,1.4,1.4,1.4s1.4-0.6,1.4-1.4v-5.4 C219.8,407.9,219.2,407.2,218.4,407.2z" />
	<path fill="#808080" d="M222.7,419.6h5.6c0.8,0,1.4-0.6,1.4-1.4s-0.6-1.4-1.4-1.4h-5.6c-0.8,0-1.4,0.6-1.4,1.4 S221.9,419.6,222.7,419.6z" />
	<path fill="#808080" d="M645.4,415.4c0.8,0,1.4-0.6,1.4-1.4v-5.5c0-0.8-0.6-1.4-1.4-1.4s-1.4,0.6-1.4,1.4v5.5 C644,414.8,644.7,415.4,645.4,415.4z" />
	<path fill="#808080" d="M635.9,419.6h5.4c0.8,0,1.4-0.6,1.4-1.4s-0.6-1.4-1.4-1.4h-5.4c-0.8,0-1.4,0.6-1.4,1.4 S635.1,419.6,635.9,419.6z" />
	<path fill="#808080" d="M218.3,150.3c0.8,0,1.4-0.6,1.4-1.4v-5.5c0-0.8-0.6-1.4-1.4-1.4s-1.4,0.6-1.4,1.4v5.5 C216.9,149.7,217.5,150.3,218.3,150.3z" />
	<path fill="#808080" d="M161.9,279h5.3v5.3c0,0.8,0.6,1.4,1.4,1.4s1.4-0.6,1.4-1.4V279h5.3c0.8,0,1.4-0.6,1.4-1.4s-0.6-1.4-1.4-1.4 H170v-5.3c0-0.8-0.6-1.4-1.4-1.4s-1.4,0.6-1.4,1.4v5.3h-5.3c-0.8,0-1.4,0.6-1.4,1.4S161.1,279,161.9,279z" />
	<path fill="#808080" d="M641.3,50.9C641.3,50.9,641.3,50.9,641.3,50.9C641.3,50.9,641.3,50.9,641.3,50.9 C641.3,50.9,641.4,50.9,641.3,50.9c0.1,0.1,0.2,0.2,0.3,0.2c0.1,0,0.1,0.1,0.2,0.1c0.1,0,0.1,0.1,0.2,0.1c0.1,0,0.1,0,0.2,0.1 c0.1,0,0.1,0,0.2,0c0.1,0,0.2,0,0.4,0s0.2,0,0.4,0c0.1,0,0.1,0,0.2,0c0.1,0,0.1,0,0.2-0.1c0,0,0,0,0,0c0.1,0,0.1-0.1,0.2-0.1 c0,0,0,0,0,0c0,0,0.1,0,0.1-0.1c0,0,0,0,0,0c0.1-0.1,0.2-0.1,0.2-0.2c0,0,0,0,0.1-0.1l11.3-11.3c0.7-0.7,0.7-1.9,0-2.7 s-1.9-0.7-2.7,0l-8,8V17.7c0-1-0.9-1.9-1.9-1.9s-1.9,0.9-1.9,1.9V45l-8-8c-0.7-0.7-1.9-0.7-2.7,0c-0.7,0.7-0.7,1.9,0,2.7 L641.3,50.9z" />
</svg>
