<svg xmlns="http://www.w3.org/2000/svg" viewBox="0 0 878 490">
	<path fill="#808080" d="M285.4,25.7c0.3,0.8,1.1,1.3,1.9,1.3c0.2,0,0.5,0,0.7-0.1c1-0.4,1.5-1.5,1.1-2.6l-6.9-18.1 c-0.4-1-1.5-1.5-2.6-1.1c-1,0.4-1.5,1.5-1.1,2.6L285.4,25.7z" />
	<path fill="#808080" d="M228.1,50.6l16.3,10.6c0.3,0.2,0.7,0.3,1.1,0.3c0.6,0,1.3-0.3,1.7-0.9c0.6-0.9,0.3-2.2-0.6-2.7l-16.3-10.6 c-0.9-0.6-2.2-0.3-2.7,0.6C226.9,48.8,227.2,50,228.1,50.6z" />
	<path fill="#808080" d="M231.8,109.9l-19.4,1c-1.1,0.1-1.9,1-1.9,2.1c0.1,1.1,0.9,1.9,2,1.9c0,0,0.1,0,0.1,0l19.4-1 c1.1-0.1,1.9-1,1.9-2.1C233.8,110.7,232.8,109.9,231.8,109.9z" />
	<path fill="#808080" d="M250.5,160.8L235.4,173c-0.9,0.7-1,1.9-0.3,2.8c0.4,0.5,1,0.7,1.5,0.7c0.4,0,0.9-0.1,1.2-0.4l15.1-12.2 c0.9-0.7,1-1.9,0.3-2.8C252.6,160.2,251.3,160.1,250.5,160.8z" />
	<path fill="#808080" d="M297.9,189.5c-1.1-0.3-2.1,0.3-2.4,1.4l-5,18.7c-0.3,1.1,0.3,2.1,1.4,2.4c0.2,0,0.3,0.1,0.5,0.1 c0.9,0,1.7-0.6,1.9-1.5l5-18.7C299.6,190.9,299,189.8,297.9,189.5z" />
	<path fill="#808080" d="M394.4,152c-0.9-0.6-2.1-0.3-2.7,0.6c-0.6,0.9-0.3,2.2,0.6,2.7l16.3,10.6c0.3,0.2,0.7,0.3,1.1,0.3 c0.6,0,1.3-0.3,1.7-0.9c0.6-0.9,0.3-2.2-0.6-2.7L394.4,152z" />
	<path fill="#808080" d="M406.8,103.2c0,0,0.1,0,0.1,0l19.4-1c1.1-0.1,1.9-1,1.9-2.1c-0.1-1.1-1-1.9-2.1-1.9l-19.4,1 c-1.1,0.1-1.9,1-1.9,2.1C404.9,102.4,405.8,103.2,406.8,103.2z" />
	<path fill="#808080" d="M387,52.8c0.4,0,0.9-0.1,1.2-0.4l15.1-12.2c0.9-0.7,1-1.9,0.3-2.8c-0.7-0.9-1.9-1-2.8-0.3l-15.1,12.2 c-0.9,0.7-1,1.9-0.3,2.8C385.8,52.5,386.4,52.8,387,52.8z" />
	<path fill="#808080" d="M340.8,23.6c0.2,0,0.3,0.1,0.5,0.1c0.9,0,1.7-0.6,1.9-1.5l5-18.7c0.3-1.1-0.3-2.1-1.4-2.4 c-1.1-0.3-2.1,0.3-2.4,1.4l-5,18.7C339.1,22.3,339.7,23.3,340.8,23.6z" />
	<path fill="#808080" d="M667.3,394c-18.6-50.4-74.8-159.4-76.8-163.3c-3-7.8-8.9-14.1-16.6-17.5c-7.7-3.4-16.3-3.7-24.2-0.6 c-7.9,3-14.1,9-17.6,16.7c-1.2,2.7-2,5.6-2.4,8.4l-5-13c-3-7.9-9-14.1-16.7-17.6c-7.7-3.4-16.3-3.7-24.2-0.6 c-11.1,4.3-18.4,14.1-20,25.2l-5-13c-3-7.9-9-14.1-16.7-17.6c-7.7-3.4-16.3-3.7-24.2-0.6c-7.9,3-14.1,9-17.6,16.7 c-1.2,2.7-2,5.6-2.4,8.4l-33.5-87.4c-0.1-0.1-0.1-0.3-0.2-0.4c0.3-0.1,0.6-0.4,0.9-0.7c9.9-14.8,12.1-33.6,5.7-50.2 c-10.8-28.2-42.6-42.3-70.8-31.5c-28.2,10.8-42.3,42.6-31.5,70.8c6.2,16.1,19.7,28.4,36.3,33.1c0.2,0.6,0.3,1.1,0.5,1.7l57.6,150 c-14.8-12.7-34.7-15.4-48.6-5.4c-12.8,9.2-12.9,20.3-0.5,40.9c2.8,4.6,5.6,9.8,8.6,15.4c0,0.3,0.1,0.6,0.2,0.9 c0.1,0.2,0.3,0.4,0.5,0.5c8.5,16.4,17.5,36.4,26.2,55.9c12.5,27.8,24.4,54.1,34.2,69.3c0.4,0.6,1,0.9,1.7,0.9 c0.4,0,0.7-0.1,1.1-0.3c0.9-0.6,1.2-1.8,0.6-2.7c-9.7-15-21.4-41.1-33.9-68.8c-8.6-19.1-17.4-38.7-25.8-55.1l25.9-15 c0.9-0.5,1.2-1.7,0.8-2.6l-7.6-15.4c-2.6-5.3-7.2-9.1-12.8-10.8c-5.6-1.7-11.5-1-16.6,2c-3,1.7-5.5,4.2-7.3,7.2 c-2.6-9.4,0.7-14.5,7.2-19.1c14.2-10.2,36.5-5,49.9,11.6l26.7,69.6c0.4,1,1.5,1.5,2.6,1.1c1-0.4,1.5-1.5,1.1-2.6l-87.9-229 c-2.7-6.9-2.5-14.4,0.6-21.2c3-6.8,8.5-11.9,15.4-14.6c14.3-5.5,30.3,1.7,35.8,15.9l39,101.7c0.4,1,1.5,1.5,2.6,1.1 c1-0.4,1.5-1.5,1.1-2.6c-2.7-6.9-2.5-14.4,0.6-21.2c3-6.8,8.5-11.9,15.4-14.6c6.9-2.7,14.4-2.5,21.2,0.6c6.8,3,11.9,8.5,14.6,15.4 l10.5,27.3c0,0,0,0,0,0c0.4,1,1.5,1.5,2.6,1.1c1-0.4,1.5-1.5,1.1-2.6c-5.5-14.3,1.7-30.3,15.9-35.8c6.9-2.7,14.4-2.5,21.2,0.6 c6.8,3,11.9,8.5,14.6,15.4l10.5,27.3c0.4,1,1.5,1.5,2.6,1.1c1-0.4,1.5-1.5,1.1-2.6l0,0c-2.6-6.9-2.4-14.4,0.6-21.2 c3-6.8,8.5-11.9,15.4-14.6c6.9-2.7,14.4-2.5,21.2,0.6c6.8,3,11.9,8.5,14.6,15.4c0,0.1,0.1,0.1,0.1,0.2 c0.6,1.1,57.9,112.1,76.6,162.9c0.3,0.8,1.1,1.3,1.9,1.3c0.2,0,0.5,0,0.7-0.1C667.2,396.1,667.7,395,667.3,394z M318.7,324.1 c4.1-2.4,8.9-3,13.5-1.6c4.6,1.4,8.3,4.5,10.4,8.7l6.8,13.7l-24.1,14c-2.8-5.3-5.5-10.2-8.1-14.5c-2.6-4.3-4.5-8.1-5.9-11.4 C312.6,329.3,315.4,326,318.7,324.1z M323.4,120c-0.7,0.2-1.3,0.5-1.9,0.8v-10.2h10.3c1.1,0,2-0.9,2-2s-0.9-2-2-2h-10.3V96.2 c0-1.1-0.9-2-2-2c-1.1,0-2,0.9-2,2v10.4h-10.3c-1.1,0-2,0.9-2,2s0.9,2,2,2h10.3V121c0,0.6,0.3,1.2,0.8,1.5c-3,1.8-5.6,4.1-7.8,6.7 c-8.4-3.7-13.8-11.9-13.8-21.2c0-12.7,10.2-23.1,22.8-23.1s22.8,10.4,22.8,23.1c0,3.6-0.9,7.1-2.4,10.3 C334.6,117.5,328.9,117.9,323.4,120z M343.9,119.3c1.6-3.5,2.5-7.3,2.5-11.2c0-14.9-12-27.1-26.8-27.1s-26.8,12.1-26.8,27.1 c0,10.5,6,20,15.4,24.5c-0.8,1.3-1.6,2.7-2.3,4.2c-2.6,5.8-3.3,12-2.3,18.1c-14.4-4.8-26-15.8-31.4-30c-10-26.1,3.1-55.6,29.2-65.6 c26.1-10,55.6,3.1,65.6,29.2c5.8,15.1,4,32-4.7,45.6C358.2,126.7,351.5,121.6,343.9,119.3z" />
	<path fill="#808080" d="M344.2,131.3c-5.3-2.6-11.2-2.8-16.7-0.7c-5.5,2.1-9.7,6.3-11.9,11.7s-2.1,11.4,0.4,16.7l7.2,15.6 c0.3,0.7,1.1,1.2,1.8,1.2c0.2,0,0.5,0,0.7-0.1l33.4-12.8c1-0.4,1.5-1.4,1.2-2.4l-5.1-16.4C353.3,138.3,349.5,133.8,344.2,131.3z M325.9,171.2l-6.4-13.9c-2-4.3-2.1-9.1-0.3-13.6c1.8-4.4,5.2-7.8,9.7-9.5c2-0.8,4.1-1.1,6.1-1.1c2.5,0,5.1,0.6,7.4,1.7 c4.3,2.1,7.4,5.7,8.8,10.3l4.5,14.6L325.9,171.2z" />
</svg>
