<svg xmlns="http://www.w3.org/2000/svg" viewBox="0 0 878 490">
	<path fill="#808080" d="M734.8,68.1h-81.2c-1.7-1.3-3.9-2.1-6.3-2.1H217.1c-2.3,0-4.5,0.8-6.3,2.1h-67.6c-15.2,0-27.6,12.4-27.6,27.6 v6.5v352.5v6.5c0,15.2,12.4,27.6,27.6,27.6h591.6c15.2,0,27.6-12.4,27.6-27.6v-6.5V102.1v-6.5C762.4,80.5,750,68.1,734.8,68.1z M758.6,95.3c-1.3-0.8-2.7-1.3-4.3-1.3h-97l0.6-17.6c0-1.6-0.4-3.2-1.1-4.6h78.1C747.8,71.9,758.4,82.4,758.6,95.3z M119.4,102.1 c0-2.3,2-4.3,4.4-4.3h83.5l1,31.6c0,5.8,4.7,10.5,10.5,10.5h8.5V411h412.2V139.9h6.1c5.8,0,10.5-4.7,10.5-10.4l1-31.7h97.1 c2.4,0,4.4,1.9,4.4,4.3v352.5c0,2.3-2,4.3-4.4,4.3H123.8c-2.4,0-4.4-1.9-4.4-4.3V102.1z M231.1,139.9h404.7v267.3H231.1V139.9z M217.1,69.8h430.3c3.7,0,6.7,3,6.7,6.6l-1.7,53.1c0,3.7-3,6.7-6.7,6.7h-6.1H227.3h-8.5c-3.7,0-6.7-3-6.7-6.7l-1.7-52.9 C210.4,72.8,213.4,69.8,217.1,69.8z M143.2,71.9h64.5c-0.7,1.4-1.1,3-1.1,4.6l0.6,17.6h-83.4c-1.6,0-3.1,0.5-4.3,1.3 C119.6,82.4,130.2,71.9,143.2,71.9z M734.8,484.9H143.2c-13,0-23.6-10.5-23.8-23.5c1.3,0.8,2.7,1.3,4.3,1.3h630.5 c1.6,0,3.1-0.5,4.3-1.3C758.4,474.4,747.8,484.9,734.8,484.9z" />
	<path fill="#808080" d="M169.9,316.2c20.8,0,37.8-16.9,37.8-37.8c0-20.8-16.9-37.8-37.8-37.8c-20.8,0-37.8,16.9-37.8,37.8 C132.1,299.2,149,316.2,169.9,316.2z M169.9,244.4c18.7,0,34,15.2,34,34c0,18.7-15.2,34-34,34s-34-15.2-34-34 C135.9,259.6,151.1,244.4,169.9,244.4z" />
	<path fill="#808080" d="M169.9,293.8c8.5,0,15.5-6.9,15.5-15.5c0-8.5-6.9-15.5-15.5-15.5s-15.5,6.9-15.5,15.5 C154.4,286.9,161.3,293.8,169.9,293.8z M169.9,266.7c6.4,0,11.7,5.2,11.7,11.7s-5.2,11.7-11.7,11.7c-6.4,0-11.7-5.2-11.7-11.7 S163.4,266.7,169.9,266.7z" />
	<path fill="#808080" d="M160.1,226.7h18.8c4.9,0,8.9-4,8.9-8.9v-87.5c0-4.9-4-8.9-8.9-8.9h-18.8c-4.9,0-8.9,4-8.9,8.9v87.5 C151.2,222.7,155.2,226.7,160.1,226.7z M178.9,222.9h-18.8c-2.8,0-5.1-2.3-5.1-5.1v-16.8h29v16.8 C184,220.6,181.7,222.9,178.9,222.9z M184,175.8v21.5h-29v-21.5H184z M155,172v-20.9h29V172H155z M160.1,125.3h18.8 c2.8,0,5.1,2.3,5.1,5.1v17h-29v-17C155,127.5,157.3,125.3,160.1,125.3z" />
	<path fill="#808080" d="M179.2,331h-19.4c-4.8,0-8.6,3.9-8.6,8.6v88c0,4.7,3.8,8.6,8.6,8.6h19.4c4.7,0,8.6-3.8,8.6-8.6v-88.1 C187.7,334.9,183.9,331,179.2,331z M159.8,334.8h19.4c2.6,0,4.8,2.1,4.8,4.8v17.3h-29v-17.2C155,337,157.2,334.8,159.8,334.8z M155,381.6v-20.9h29v20.9H155z M184,385.3v21.5h-29v-21.5H184z M179.2,432.5h-19.4c-2.6,0-4.8-2.1-4.8-4.8v-17.1h29v17.1 C184,430.3,181.8,432.5,179.2,432.5z" />
	<path fill="#808080" d="M400.7,83h62.6c2.1,0,3.8-1.7,3.8-3.8c0-2.1-1.7-3.8-3.8-3.8h-62.6c-2.1,0-3.8,1.7-3.8,3.8 C396.9,81.3,398.6,83,400.7,83z" />
	<path fill="#808080" d="M219.4,407.7c-0.8,0-1.4,0.6-1.4,1.4v5.4c0,0.8,0.6,1.4,1.4,1.4s1.4-0.6,1.4-1.4v-5.4 C220.9,408.3,220.2,407.7,219.4,407.7z" />
	<path fill="#808080" d="M223.7,420h5.5c0.8,0,1.4-0.6,1.4-1.4s-0.6-1.4-1.4-1.4h-5.5c-0.8,0-1.4,0.6-1.4,1.4S222.9,420,223.7,420z" />
	<path fill="#808080" d="M644.5,407.6c-0.8,0-1.4,0.6-1.4,1.4v5.5c0,0.8,0.6,1.4,1.4,1.4c0.8,0,1.4-0.6,1.4-1.4V409 C645.9,408.2,645.3,407.6,644.5,407.6z" />
	<path fill="#808080" d="M635,420h5.4c0.8,0,1.4-0.6,1.4-1.4s-0.6-1.4-1.4-1.4H635c-0.8,0-1.4,0.6-1.4,1.4S634.2,420,635,420z" />
	<path fill="#808080" d="M644.5,149.3c0.8,0,1.4-0.6,1.4-1.4v-5.5c0-0.8-0.6-1.4-1.4-1.4c-0.8,0-1.4,0.6-1.4,1.4v5.5 C643,148.7,643.7,149.3,644.5,149.3z" />
	<path fill="#808080" d="M219.3,149.3c0.8,0,1.4-0.6,1.4-1.4v-5.5c0-0.8-0.6-1.4-1.4-1.4s-1.4,0.6-1.4,1.4v5.5 C217.9,148.7,218.6,149.3,219.3,149.3z" />
	<path fill="#808080" d="M163.1,280.1h5.3v5.3c0,0.8,0.6,1.4,1.4,1.4s1.4-0.6,1.4-1.4v-5.3h5.3c0.8,0,1.4-0.6,1.4-1.4s-0.6-1.4-1.4-1.4 h-5.3V272c0-0.8-0.6-1.4-1.4-1.4s-1.4,0.6-1.4,1.4v5.3h-5.3c-0.8,0-1.4,0.6-1.4,1.4S162.4,280.1,163.1,280.1z" />
	<path fill="#808080" d="M506.9,230.3l25.8-41.1l-9.6-6l-25.8,41.1L506.9,230.3z M524.3,188.4l3.1,2l-21.8,34.7l-3.1-2L524.3,188.4z" />
	<path fill="#808080" d="M542.7,172.5l-8.9-5.6c-0.8-0.5-1.8-0.7-2.7-0.5c-0.9,0.2-1.7,0.8-2.2,1.6l-4.7,7.4l-2.4-1.5L452,285.2h0 l-8.7,13.9l-30.7,49l0,0l-6.5,10.4l1.7,1.1l-6.4,10.2l1.6,5.2l1.4,0.9l-1.3,2.1l0.8,0.5l-0.7,2.1l0.5,0.3l-3.3,5.3l3.2,2l3.3-5.3 l0.5,0.3l1.6-1.6l0.8,0.5l1.3-2.1l1.5,1l5.2-0.9l6.4-10.2l1.7,1.1l115.8-184.4l-2.4-1.5l4.7-7.4c0.5-0.8,0.7-1.8,0.5-2.7 C544.1,173.8,543.5,173,542.7,172.5z M411.2,357.2l2.5-4l6.7,4.2l6.7,4.2l-2.5,4l-6.7-4.2L411.2,357.2z M452.8,320.6l-23.7,37.8 l-6.7-4.2l-6.7-4.2l37.4-59.6l13.4,8.4L452.8,320.6z M415.4,376.4l-2.2,0.4l-2-1.2l-5-3.1l0,0l-0.2-0.1l-0.7-2.2l5.5-8.7l5,3.1 l5,3.1L415.4,376.4z M468.5,295.6l-13.4-8.4l67.8-108l13.4,8.4L468.5,295.6z M535.9,182.9l-8.5-5.4l4.5-7.3l8.6,5.4L535.9,182.9z" />
</svg>
