<svg xmlns="http://www.w3.org/2000/svg" viewBox="0 0 878 490">
	<path fill="#808080" d="M60,351.6h342.8c9.1,0,16.5-7.4,16.5-16.5V115.7c0-9.1-7.4-16.5-16.5-16.5H60c-9.1,0-16.5,7.4-16.5,16.5v219.4 C43.5,344.2,50.9,351.6,60,351.6z M47.5,115.7c0-6.9,5.6-12.5,12.5-12.5h342.8c6.9,0,12.5,5.6,12.5,12.5v219.4 c0,6.9-5.6,12.5-12.5,12.5H60c-6.9,0-12.5-5.6-12.5-12.5V115.7z" />
	<path fill="#808080" d="M396.7,121.7H61.5v207.4h335.2V121.7z M392.8,325.2H65.4V125.6h327.4V325.2z" />
	<path fill="#808080" d="M1.3,390.7h452.4v-24.6H1.3V390.7z M5.3,370.1h444.6v16.7H5.3V370.1z" />
	<path fill="#808080" d="M767.4,369.6h-4.6v-1.9h-88.5h-50h-3.9h-5.7v1.4h-7.7l-2.8,3.2v0.7h-1.7v0.8L601,374v1.3h-3.5v2h3.5v1.3 l1.4,0.3v0.7h1.7v0.8l2.8,3.1h7.7v1.4h5.7h3.9h50h88.5v-1.9h4.6c2.1,0,3.7-1.7,3.7-3.7v-5.8C771.1,371.3,769.4,369.6,767.4,369.6z M608.6,379.5l-0.6-0.7v-5.2l0.6-0.7h5.9v6.6H608.6z M618.5,380.9v-9.3h1.8v9.3H618.5z M624.2,380.9v-9.3h46.1v9.3H624.2z M674.2,371.6h84.6v9.3h-84.6V371.6z M767.2,378.9h-4.4v-5.4h4.4V378.9z" />
	<path fill="#808080" d="M859.8,105.9h-47c-1.1-0.8-2.5-1.2-3.9-1.2H558.5c-1.5,0-2.8,0.5-3.9,1.2h-39.1c-9.3,0-16.9,7.6-16.9,16.9v3.8 v205.1v3.8c0,9.3,7.6,16.9,16.9,16.9h344.3c9.3,0,16.9-7.6,16.9-16.9v-3.8V126.5v-3.8C876.7,113.4,869.1,105.9,859.8,105.9z M872.6,121.2c-0.5-0.1-1-0.2-1.6-0.2h-55.6l0.3-9.4c0-0.6-0.1-1.2-0.3-1.8h44.2C866.4,109.8,871.9,114.8,872.6,121.2z M502.5,126.5c0-0.9,0.8-1.6,1.7-1.6H552l0.6,17.5c0,3.3,2.3,6.1,5.5,6.8c-0.1,0.2-0.2,0.5-0.2,0.8v3.2c0,1.1,0.9,2,2,2 c1.1,0,2-0.9,2-2V150c0-0.2-0.1-0.4-0.1-0.6h1.9v157.8h241.6V149.4h2.1c-0.1,0.2-0.1,0.4-0.1,0.6v3.2c0,1.1,0.9,2,2,2 c1.1,0,2-0.9,2-2V150c0-0.5-0.2-0.9-0.5-1.2c2.4-1.1,4.2-3.5,4.2-6.3l0.6-17.6h55.7c0.9,0,1.7,0.7,1.7,1.6v205.1 c0,0.9-0.8,1.6-1.7,1.6H504.2c-0.9,0-1.7-0.7-1.7-1.6V126.5z M567.5,149.4h233.7v153.8H567.5V149.4z M558.5,108.6h250.4 c1.7,0,3,1.4,3,3l-1,30.9c0,1.7-1.4,3-3,3h-2.7H563.6h-4.1c-1.7,0-3-1.4-3-3.1l-1-30.8C555.5,109.9,556.8,108.6,558.5,108.6z M515.5,109.8h36.3c-0.2,0.6-0.3,1.2-0.3,1.9l0.3,9.3h-47.6c-0.6,0-1.1,0.1-1.6,0.3C503.4,114.8,508.9,109.8,515.5,109.8z M859.8,348.4H515.5c-6.6,0-12.1-5-12.9-11.4c0.5,0.1,1,0.3,1.6,0.3h366.9c0.5,0,1.1-0.1,1.6-0.2 C871.9,343.4,866.4,348.4,859.8,348.4z" />
	<path fill="#808080" d="M531,251.9c12.6,0,22.8-10.2,22.8-22.8c0-12.6-10.2-22.8-22.8-22.8c-12.6,0-22.8,10.2-22.8,22.8 C508.2,241.7,518.4,251.9,531,251.9z M531,210.2c10.4,0,18.9,8.5,18.9,18.9S541.4,248,531,248c-10.4,0-18.9-8.5-18.9-18.9 S520.6,210.2,531,210.2z" />
	<path fill="#808080" d="M530.9,239c5.4,0,9.9-4.4,9.9-9.9s-4.4-9.9-9.9-9.9s-9.9,4.4-9.9,9.9S525.4,239,530.9,239z M530.9,223.2 c3.3,0,5.9,2.7,5.9,5.9c0,3.3-2.7,5.9-5.9,5.9c-3.3,0-5.9-2.7-5.9-5.9C524.9,225.8,527.6,223.2,530.9,223.2z" />
	<path fill="#808080" d="M528.5,199.9h4.6c5.1,0,9.2-4.1,9.2-9.2v-44.5c0-5.1-4.1-9.2-9.2-9.2h-4.6c-5.1,0-9.2,4.1-9.2,9.2v44.5 C519.3,195.7,523.4,199.9,528.5,199.9z M533.1,196h-4.6c-2.9,0-5.3-2.4-5.3-5.3V185h15.1v5.7C538.4,193.6,536,196,533.1,196z M538.4,170.3V181h-15.1v-10.8H538.4z M523.2,166.3v-10.4h15.1v10.4H523.2z M528.5,140.9h4.6c2.9,0,5.3,2.4,5.3,5.3v5.8h-15.1v-5.8 C523.2,143.2,525.6,140.9,528.5,140.9z" />
	<path fill="#808080" d="M533.4,258.9h-5.1c-5,0-9,4-9,9v45.1c0,4.9,4,8.9,8.9,8.9h5.2c4.9,0,8.9-4,8.9-8.9v-45.2 C542.3,262.8,538.3,258.9,533.4,258.9z M528.3,262.8h5.1c2.7,0,5,2.2,5,5v6.2h-15.1v-6.1C523.2,265.1,525.5,262.8,528.3,262.8z M523.2,288.3v-10.4h15.1v10.4H523.2z M538.4,292.2V303h-15.1v-10.8H538.4z M533.4,317.9h-5.2c-2.7,0-5-2.2-5-5v-6h15.1v6 C538.4,315.7,536.1,317.9,533.4,317.9z" />
	<path fill="#808080" d="M665.3,115.2h36.4c1.1,0,2-0.9,2-2s-0.9-2-2-2h-36.4c-1.1,0-2,0.9-2,2S664.2,115.2,665.3,115.2z" />
	<path fill="#808080" d="M559.9,310.3c1.1,0,2-0.9,2-2v-3.2c0-1.1-0.9-2-2-2c-1.1,0-2,0.9-2,2v3.2C557.9,309.4,558.8,310.3,559.9,310.3z" />
	<path fill="#808080" d="M565.2,313.3h3.2c1.1,0,2-0.9,2-2s-0.9-2-2-2h-3.2c-1.1,0-2,0.9-2,2S564.2,313.3,565.2,313.3z" />
	<path fill="#808080" d="M809.2,308.3c1.1,0,2-0.9,2-2v-3.2c0-1.1-0.9-2-2-2s-2,0.9-2,2v3.2C807.2,307.4,808.1,308.3,809.2,308.3z" />
	<path fill="#808080" d="M801.6,313.9h3.1c1.1,0,2-0.9,2-2c0-1.1-0.9-2-2-2h-3.1c-1.1,0-2,0.9-2,2C799.6,313,800.5,313.9,801.6,313.9z" />
	<path fill="#808080" d="M528.9,231v1.5c0,1.1,0.9,2,2,2c1.1,0,2-0.9,2-2V231h1.5c1.1,0,2-0.9,2-2c0-1.1-0.9-2-2-2h-1.5v-1.5 c0-1.1-0.9-2-2-2c-1.1,0-2,0.9-2,2v1.5h-1.5c-1.1,0-2,0.9-2,2c0,1.1,0.9,2,2,2H528.9z" />
	<path fill="#808080" d="M642.4,222.3h-3.5v-16c0-1.1-0.9-2-2-2c-1.1,0-2,0.9-2,2v16h-17.4v-16c0-1.1-0.9-2-2-2c-1.1,0-2,0.9-2,2v16 h-0.8c-1.1,0-2,0.9-2,2c0,1.1,0.9,2,2,2h0.8v19.1c0,1.1,0.9,2,2,2c1.1,0,2-0.9,2-2v-19.1h17.4v19.1c0,1.1,0.9,2,2,2 c1.1,0,2-0.9,2-2v-19.1h3.5c1.1,0,2-0.9,2-2C644.3,223.2,643.5,222.3,642.4,222.3z" />
	<path fill="#808080" d="M672.8,207.9c1.1,0,2-0.9,2-2c0-1.1-0.9-2-2-2h-20.4c-1.1,0-2,0.9-2,2c0,1.1,0.9,2,2,2h0.8v17h-0.8 c-1.1,0-2,0.9-2,2c0,1.1,0.9,2,2,2h0.8v14.7h-0.8c-1.1,0-2,0.9-2,2c0,1.1,0.9,2,2,2h20.4c1.1,0,2-0.9,2-2c0-1.1-0.9-2-2-2h-15.7 v-14.7h8.1c1.1,0,2-0.9,2-2c0-1.1-0.9-2-2-2h-8.1v-17H672.8z" />
	<path fill="#808080" d="M703.3,243.3h-17.2v-37.1c0-1.1-0.9-2-2-2c-1.1,0-2,0.9-2,2v37.2c-0.7,0.3-1.3,1-1.3,1.8c0,1.1,0.9,2,2,2h1.3 c0,0,0,0,0,0s0,0,0,0h19.1c1.1,0,2-0.9,2-2C705.2,244.2,704.3,243.3,703.3,243.3z" />
	<path fill="#808080" d="M730.7,243.3h-17.2v-37.1c0-1.1-0.9-2-2-2c-1.1,0-2,0.9-2,2v37.2c-0.7,0.3-1.3,1-1.3,1.8c0,1.1,0.9,2,2,2h1.3 c0,0,0,0,0,0c0,0,0,0,0,0h19.1c1.1,0,2-0.9,2-2C732.6,244.2,731.8,243.3,730.7,243.3z" />
	<path fill="#808080" d="M749.7,203.5c-9.5,0-17.2,10.2-17.2,22.8s7.7,22.8,17.2,22.8s17.2-10.2,17.2-22.8S759.2,203.5,749.7,203.5z M749.7,245.1c-7.3,0-13.3-8.5-13.3-18.9s6-18.9,13.3-18.9c7.3,0,13.3,8.5,13.3,18.9S757,245.1,749.7,245.1z" />
	<path fill="#808080" d="M477.7,241.3c-0.1-0.2-0.2-0.5-0.4-0.6l-11.9-11.9c-0.8-0.8-2-0.8-2.8,0s-0.8,2,0,2.8l8.6,8.6h-29 c-1.1,0-2,0.9-2,2c0,1.1,0.9,2,2,2h29l-8.6,8.6c-0.8,0.8-0.8,2,0,2.8c0.4,0.4,0.9,0.6,1.4,0.6c0.5,0,1-0.2,1.4-0.6l11.9-11.9 c0.2-0.2,0.3-0.4,0.4-0.6C477.9,242.3,477.9,241.8,477.7,241.3z" />
	<path fill="#808080" d="M475.9,213.4h-29l8.6-8.6c0.8-0.8,0.8-2,0-2.8c-0.8-0.8-2-0.8-2.8,0L440.7,214c-0.2,0.2-0.3,0.4-0.4,0.6 c-0.1,0.2-0.2,0.5-0.2,0.8c0,0.3,0.1,0.5,0.2,0.8c0.1,0.2,0.2,0.5,0.4,0.6l11.9,11.9c0.4,0.4,0.9,0.6,1.4,0.6c0.5,0,1-0.2,1.4-0.6 c0.8-0.8,0.8-2,0-2.8l-8.6-8.6h29c1.1,0,2-0.9,2-2C477.8,214.3,476.9,213.4,475.9,213.4z" />
	<path fill="#808080" d="M170.5,223.9h0.3v15c0,1.1,0.9,2,2,2c1.1,0,2-0.9,2-2v-15H188v15c0,1.1,0.9,2,2,2s2-0.9,2-2v-15h2.5 c1.1,0,2-0.9,2-2c0-1.1-0.9-2-2-2H192v-12.6c0-1.1-0.9-2-2-2s-2,0.9-2,2V220h-13.3v-12.6c0-1.1-0.9-2-2-2c-1.1,0-2,0.9-2,2V220 h-0.3c-1.1,0-2,0.9-2,2C168.6,223.1,169.5,223.9,170.5,223.9z" />
	<path fill="#808080" d="M202.5,237.1c-1.1,0-2,0.9-2,2c0,1.1,0.9,2,2,2H219c1.1,0,2-0.9,2-2c0-1.1-0.9-2-2-2h-12.3V226h6.1 c1.1,0,2-0.9,2-2c0-1.1-0.9-2-2-2h-6.1v-13H219c1.1,0,2-0.9,2-2c0-1.1-0.9-2-2-2h-16.5c-1.1,0-2,0.9-2,2c0,1.1,0.9,2,2,2h0.3v13 h-0.3c-1.1,0-2,0.9-2,2c0,1.1,0.9,2,2,2h0.3v11.1H202.5z" />
	<path fill="#808080" d="M227.1,240.9h16.5c1.1,0,2-0.9,2-2c0-1.1-0.9-2-2-2h-13.5v-29.6c0-1.1-0.9-2-2-2c-1.1,0-2,0.9-2,2v29.8 c-0.6,0.3-1,1-1,1.7C225.1,240,226,240.9,227.1,240.9z" />
	<path fill="#808080" d="M249.3,240.9h16.5c1.1,0,2-0.9,2-2c0-1.1-0.9-2-2-2h-13.5v-29.6c0-1.1-0.9-2-2-2c-1.1,0-2,0.9-2,2v29.8 c-0.6,0.3-1,1-1,1.7C247.3,240,248.2,240.9,249.3,240.9z" />
	<path fill="#808080" d="M281.1,242.4c7.9,0,14.3-8.4,14.3-18.8s-6.4-18.8-14.3-18.8s-14.3,8.4-14.3,18.8S273.3,242.4,281.1,242.4z M281.1,208.7c5.7,0,10.3,6.7,10.3,14.9c0,8.2-4.6,14.9-10.3,14.9c-5.7,0-10.3-6.7-10.3-14.9C270.8,215.4,275.4,208.7,281.1,208.7z" />
	<rect x="721.7" y="361.6" fill="#808080" width="39.1" height="3.9" />
</svg>
