<svg xmlns="http://www.w3.org/2000/svg" viewBox="0 0 34 34">
	<circle fill="none" cx="17px" cy="17px" r="17px" />
	<path fill="#333333" d="M17,20c0.553,0,1-0.447,1-1v-1h1c0.553,0,1-0.448,1-1c0-0.552-0.448-1-1-1h-1v-1c0-0.553-0.448-1-1-1 C16.448,14,16,14.447,16,15v1h-1.001C14.448,16,14,16.448,14,17c0,0.552,0.448,1,0.999,1H16v1C16,19.553,16.448,20,17,20z M23,12 c-0.552,0-1,0.448-1,1v10c0,0.552-0.448,1-0.999,1h-7C13.448,24,13,24.448,13,25c0,0.553,0.448,1,0.999,1h8 C23.105,26,24,25.105,24,24V13C24,12.448,23.552,12,23,12z M20,10c0.553,0,1-0.447,1-1c0-0.552-0.448-1-1-1h-8 c-1.105,0-2,0.895-2,2v11c0,0.553,0.448,1,0.999,1c0.553,0,1-0.447,1-1V11c0-0.552,0.448-1,1-1H20z"/>
</svg>
