<svg xmlns="http://www.w3.org/2000/svg" viewBox="0 0 34 34">
	<circle fill="none" cx="17px" cy="17px" r="17px" />
	<path fill="#333333" d="M19.828,14.172c-0.391-0.391-1.023-0.391-1.414,0L17,15.586l-1.414-1.414c-0.391-0.391-1.023-0.391-1.414,0 c-0.391,0.391-0.391,1.024,0,1.414L15.586,17l-1.414,1.414c-0.391,0.391-0.391,1.024,0,1.414c0.391,0.391,1.023,0.391,1.414,0 L17,18.414l1.414,1.414c0.391,0.391,1.023,0.391,1.414,0c0.391-0.391,0.391-1.024,0-1.414L18.414,17l1.414-1.414 C20.219,15.195,20.219,14.562,19.828,14.172z M20,10C20.552,10,21,9.553,21,9C21,8.448,20.552,8,20,8h-8C10.895,8,10,8.895,10,10 v11c0,0.553,0.448,1,1,1c0.552,0,1-0.447,1-1V11c0-0.552,0.448-1,0.999-1H20z M23.001,12c-0.553,0-1,0.448-1,1v10 c0,0.552-0.448,1-1,1h-7c-0.553,0-1,0.448-1,1c0,0.553,0.448,1,1,1h8c1.104,0,2-0.895,2-2V13C24,12.448,23.552,12,23.001,12z"/>
</svg>
